<mxfile host="app.diagrams.net" modified="2023-06-02T06:28:08.663Z" agent="Mozilla/5.0 (Macintosh; Intel Mac OS X 10_15_7) AppleWebKit/537.36 (KHTML, like Gecko) Chrome/113.0.0.0 Safari/537.36" etag="OmCd-7UrtHExE6BYbPhr" version="21.3.5" type="github">
  <diagram id="C5RBs43oDa-KdzZeNtuy" name="Page-1">
    <mxGraphModel dx="1781" dy="503" grid="0" gridSize="10" guides="1" tooltips="1" connect="0" arrows="0" fold="1" page="1" pageScale="1" pageWidth="827" pageHeight="1169" math="0" shadow="0">
      <root>
        <mxCell id="WIyWlLk6GJQsqaUBKTNV-0" />
        <mxCell id="WIyWlLk6GJQsqaUBKTNV-1" parent="WIyWlLk6GJQsqaUBKTNV-0" />
        <mxCell id="TsE4t5QuG-D0fmhzeP_u-14" style="edgeStyle=orthogonalEdgeStyle;rounded=0;orthogonalLoop=1;jettySize=auto;html=1;exitX=0.5;exitY=1;exitDx=0;exitDy=0;entryX=0.188;entryY=0;entryDx=0;entryDy=0;entryPerimeter=0;fontColor=#FF2414;" parent="WIyWlLk6GJQsqaUBKTNV-1" source="TsE4t5QuG-D0fmhzeP_u-0" target="TsE4t5QuG-D0fmhzeP_u-5" edge="1">
          <mxGeometry relative="1" as="geometry" />
        </mxCell>
        <mxCell id="TsE4t5QuG-D0fmhzeP_u-0" value="管会系统表接口" style="rounded=1;whiteSpace=wrap;html=1;fontSize=12;glass=0;strokeWidth=1;shadow=0;" parent="WIyWlLk6GJQsqaUBKTNV-1" vertex="1">
          <mxGeometry x="200" y="120" width="120" height="40" as="geometry" />
        </mxCell>
        <mxCell id="TsE4t5QuG-D0fmhzeP_u-15" style="edgeStyle=orthogonalEdgeStyle;rounded=0;orthogonalLoop=1;jettySize=auto;html=1;exitX=0.5;exitY=1;exitDx=0;exitDy=0;entryX=0.813;entryY=0;entryDx=0;entryDy=0;entryPerimeter=0;fontColor=#FF2414;" parent="WIyWlLk6GJQsqaUBKTNV-1" source="TsE4t5QuG-D0fmhzeP_u-1" target="TsE4t5QuG-D0fmhzeP_u-5" edge="1">
          <mxGeometry relative="1" as="geometry" />
        </mxCell>
        <mxCell id="TsE4t5QuG-D0fmhzeP_u-1" value="报表系统表接口" style="rounded=1;whiteSpace=wrap;html=1;fontSize=12;glass=0;strokeWidth=1;shadow=0;" parent="WIyWlLk6GJQsqaUBKTNV-1" vertex="1">
          <mxGeometry x="400" y="120" width="120" height="40" as="geometry" />
        </mxCell>
        <mxCell id="TsE4t5QuG-D0fmhzeP_u-18" style="edgeStyle=orthogonalEdgeStyle;rounded=0;orthogonalLoop=1;jettySize=auto;html=1;exitX=0.5;exitY=1;exitDx=0;exitDy=0;fontColor=#FF2414;" parent="WIyWlLk6GJQsqaUBKTNV-1" source="TsE4t5QuG-D0fmhzeP_u-2" target="TsE4t5QuG-D0fmhzeP_u-0" edge="1">
          <mxGeometry relative="1" as="geometry" />
        </mxCell>
        <mxCell id="TsE4t5QuG-D0fmhzeP_u-19" style="edgeStyle=orthogonalEdgeStyle;rounded=0;orthogonalLoop=1;jettySize=auto;html=1;exitX=0.5;exitY=1;exitDx=0;exitDy=0;fontColor=#FF2414;" parent="WIyWlLk6GJQsqaUBKTNV-1" source="TsE4t5QuG-D0fmhzeP_u-2" target="TsE4t5QuG-D0fmhzeP_u-1" edge="1">
          <mxGeometry relative="1" as="geometry" />
        </mxCell>
        <mxCell id="TsE4t5QuG-D0fmhzeP_u-2" value="底层数据仓库表" style="rounded=1;whiteSpace=wrap;html=1;fontSize=12;glass=0;strokeWidth=1;shadow=0;" parent="WIyWlLk6GJQsqaUBKTNV-1" vertex="1">
          <mxGeometry x="200" y="40" width="320" height="40" as="geometry" />
        </mxCell>
        <mxCell id="TsE4t5QuG-D0fmhzeP_u-5" value="指标模型需求" style="rounded=1;whiteSpace=wrap;html=1;fontSize=12;glass=0;strokeWidth=1;shadow=0;fillColor=#dae8fc;strokeColor=#6c8ebf;" parent="WIyWlLk6GJQsqaUBKTNV-1" vertex="1">
          <mxGeometry x="200" y="400" width="320" height="40" as="geometry" />
        </mxCell>
        <mxCell id="TsE4t5QuG-D0fmhzeP_u-12" value="" style="shape=curlyBracket;whiteSpace=wrap;html=1;rounded=1;flipH=1;labelPosition=right;verticalLabelPosition=middle;align=left;verticalAlign=middle;" parent="WIyWlLk6GJQsqaUBKTNV-1" vertex="1">
          <mxGeometry x="530" y="120" width="20" height="320" as="geometry" />
        </mxCell>
        <mxCell id="TsE4t5QuG-D0fmhzeP_u-13" value="指标模型需求基调是以数仓提供给管会的的数据为基础（原因是管会数据已经做过数据核验），基于报表系统的SQL代码逻辑，分析报表口径。&lt;br&gt;1. 同一张表，比如【对公贷款借据表】，在管会系统中数据来源范围是什么？报表系统拿到的SQL代码分析出来的数据范围是否和管会一致？不一致的数据，需要额外做数据模型补充。&lt;b&gt;&lt;font color=&quot;#ff2414&quot;&gt;数据探源目前不完全明确&lt;/font&gt;&lt;/b&gt;～&lt;br&gt;2.针对已经提交的版本，没有评审机制，导致问题很多，来来回回，一个是对外表现我们的专业度不够，一个是针对这些问题来回修改调整，各方又卡时间催进度，更容易出错。&lt;br&gt;3.项目组需要对分析技术代码这个事周期性（最好不要超过三天）内部开会总结，常用的问题、错误和共性的东西需要有记录，口头的东西千万不要承诺。" style="shape=partialRectangle;whiteSpace=wrap;html=1;left=0;right=0;fillColor=none;align=left;strokeColor=#FF4D29;" parent="WIyWlLk6GJQsqaUBKTNV-1" vertex="1">
          <mxGeometry x="560" y="120" width="380" height="180" as="geometry" />
        </mxCell>
        <mxCell id="TsE4t5QuG-D0fmhzeP_u-16" value="需要分析数据来源范围和可用字段" style="text;html=1;align=center;verticalAlign=middle;resizable=0;points=[];autosize=1;strokeColor=none;fillColor=none;fontColor=#FF2414;" parent="WIyWlLk6GJQsqaUBKTNV-1" vertex="1">
          <mxGeometry x="260" y="160" width="200" height="30" as="geometry" />
        </mxCell>
        <mxCell id="TsE4t5QuG-D0fmhzeP_u-32" style="edgeStyle=none;rounded=0;orthogonalLoop=1;jettySize=auto;html=1;exitX=0;exitY=0.5;exitDx=0;exitDy=0;entryX=1;entryY=0.5;entryDx=0;entryDy=0;fontSize=14;fontColor=#FF2414;" parent="WIyWlLk6GJQsqaUBKTNV-1" source="TsE4t5QuG-D0fmhzeP_u-17" target="TsE4t5QuG-D0fmhzeP_u-29" edge="1">
          <mxGeometry relative="1" as="geometry" />
        </mxCell>
        <mxCell id="TsE4t5QuG-D0fmhzeP_u-17" value="&lt;b&gt;&lt;font style=&quot;font-size: 14px;&quot;&gt;原报表系统SQL代码分析&lt;/font&gt;&lt;/b&gt;：按照目前的分析进度，数据溯源以及SQL分析耗费了大量的时间和精力，收效甚微，是不是需要明确一套内部比较好理解的方法论来统一规范，方便进度管理和责任分工明确。&lt;br&gt;目前大家已经做了些什么，效果怎么样，后面是否还要再来一遍？有些技术口径已经分析过，有变更有调整要怎么记录？和业务部门确认的口径，技术上是否可以明确到哪张表哪个字段？（建议设置有效的管理机制来做这个事）" style="rounded=1;whiteSpace=wrap;html=1;fontSize=12;glass=0;strokeWidth=1;shadow=0;align=left;" parent="WIyWlLk6GJQsqaUBKTNV-1" vertex="1">
          <mxGeometry x="200" y="200" width="320" height="160" as="geometry" />
        </mxCell>
        <mxCell id="TsE4t5QuG-D0fmhzeP_u-20" value="指标模型需求是我们需要交付的第一个产物，针对交付上的情况，我有以下建议：&lt;br&gt;1.按照开会讨论交付的时间节点，会后需立马跟进问题情况，复杂问题倒排计划，简单问题当场过掉；避免每次临近交付时间大家火急火燎，错误百出。&lt;br&gt;2.交付不能过于依赖晓中老师，需要项目组有评估能力。&lt;br&gt;3.外部沟通成本高，需要谨慎。" style="shape=partialRectangle;whiteSpace=wrap;html=1;left=0;right=0;fillColor=none;align=left;strokeColor=#FF4D29;" parent="WIyWlLk6GJQsqaUBKTNV-1" vertex="1">
          <mxGeometry x="560" y="320" width="380" height="120" as="geometry" />
        </mxCell>
        <mxCell id="TsE4t5QuG-D0fmhzeP_u-26" style="edgeStyle=orthogonalEdgeStyle;rounded=0;orthogonalLoop=1;jettySize=auto;html=1;exitX=0.1;exitY=0.5;exitDx=0;exitDy=0;exitPerimeter=0;entryX=1;entryY=0.5;entryDx=0;entryDy=0;fontColor=#FF2414;" parent="WIyWlLk6GJQsqaUBKTNV-1" source="TsE4t5QuG-D0fmhzeP_u-21" target="TsE4t5QuG-D0fmhzeP_u-22" edge="1">
          <mxGeometry relative="1" as="geometry" />
        </mxCell>
        <mxCell id="TsE4t5QuG-D0fmhzeP_u-40" value="&lt;font color=&quot;#000000&quot;&gt;基于技术口径和模型需求，提炼指标&lt;/font&gt;" style="edgeLabel;html=1;align=center;verticalAlign=middle;resizable=0;points=[];fontSize=14;fontColor=#FF2414;" parent="TsE4t5QuG-D0fmhzeP_u-26" vertex="1" connectable="0">
          <mxGeometry x="0.234" y="-1" relative="1" as="geometry">
            <mxPoint x="45" as="offset" />
          </mxGeometry>
        </mxCell>
        <mxCell id="TsE4t5QuG-D0fmhzeP_u-21" value="" style="shape=curlyBracket;whiteSpace=wrap;html=1;rounded=1;labelPosition=left;verticalLabelPosition=middle;align=right;verticalAlign=middle;strokeColor=#FF4D29;fontColor=#FF2414;" parent="WIyWlLk6GJQsqaUBKTNV-1" vertex="1">
          <mxGeometry x="160" y="200" width="20" height="240" as="geometry" />
        </mxCell>
        <mxCell id="TsE4t5QuG-D0fmhzeP_u-43" style="edgeStyle=orthogonalEdgeStyle;rounded=0;orthogonalLoop=1;jettySize=auto;html=1;exitX=0.5;exitY=1;exitDx=0;exitDy=0;entryX=0.5;entryY=0;entryDx=0;entryDy=0;entryPerimeter=0;fontSize=14;fontColor=#000000;" parent="WIyWlLk6GJQsqaUBKTNV-1" source="TsE4t5QuG-D0fmhzeP_u-22" target="TsE4t5QuG-D0fmhzeP_u-42" edge="1">
          <mxGeometry relative="1" as="geometry" />
        </mxCell>
        <mxCell id="TsE4t5QuG-D0fmhzeP_u-22" value="指标定义" style="rounded=1;whiteSpace=wrap;html=1;fontSize=12;glass=0;strokeWidth=1;shadow=0;" parent="WIyWlLk6GJQsqaUBKTNV-1" vertex="1">
          <mxGeometry x="-280" y="300" width="140" height="40" as="geometry" />
        </mxCell>
        <mxCell id="TsE4t5QuG-D0fmhzeP_u-35" style="edgeStyle=orthogonalEdgeStyle;rounded=0;orthogonalLoop=1;jettySize=auto;html=1;exitX=0.5;exitY=1;exitDx=0;exitDy=0;fontSize=14;fontColor=#FF2414;" parent="WIyWlLk6GJQsqaUBKTNV-1" source="TsE4t5QuG-D0fmhzeP_u-29" target="TsE4t5QuG-D0fmhzeP_u-22" edge="1">
          <mxGeometry relative="1" as="geometry" />
        </mxCell>
        <mxCell id="TsE4t5QuG-D0fmhzeP_u-29" value="圈定可提炼指标范围" style="rounded=1;whiteSpace=wrap;html=1;fontSize=12;glass=0;strokeWidth=1;shadow=0;" parent="WIyWlLk6GJQsqaUBKTNV-1" vertex="1">
          <mxGeometry x="-280" y="200" width="140" height="40" as="geometry" />
        </mxCell>
        <mxCell id="TsE4t5QuG-D0fmhzeP_u-31" style="rounded=0;orthogonalLoop=1;jettySize=auto;html=1;exitX=0.5;exitY=1;exitDx=0;exitDy=0;entryX=0;entryY=0.5;entryDx=0;entryDy=0;fontSize=14;fontColor=#FF2414;" parent="WIyWlLk6GJQsqaUBKTNV-1" source="TsE4t5QuG-D0fmhzeP_u-30" target="TsE4t5QuG-D0fmhzeP_u-17" edge="1">
          <mxGeometry relative="1" as="geometry" />
        </mxCell>
        <mxCell id="TsE4t5QuG-D0fmhzeP_u-30" value="圈定报表范围" style="rounded=1;whiteSpace=wrap;html=1;fontSize=12;glass=0;strokeWidth=1;shadow=0;" parent="WIyWlLk6GJQsqaUBKTNV-1" vertex="1">
          <mxGeometry x="-280" y="40" width="320" height="40" as="geometry" />
        </mxCell>
        <mxCell id="TsE4t5QuG-D0fmhzeP_u-38" value="报表范围目前因客户需求不确定而一直在变，需要有引导客户或者明确项目范围，否则落入无休止的境况。" style="text;html=1;strokeColor=none;fillColor=none;align=left;verticalAlign=middle;whiteSpace=wrap;rounded=0;fontSize=14;fontColor=#FF2414;" parent="WIyWlLk6GJQsqaUBKTNV-1" vertex="1">
          <mxGeometry x="-280" y="90" width="320" height="70" as="geometry" />
        </mxCell>
        <mxCell id="TsE4t5QuG-D0fmhzeP_u-39" value="指标范围和最终交付量" style="text;html=1;strokeColor=none;fillColor=none;align=center;verticalAlign=middle;whiteSpace=wrap;rounded=0;fontSize=14;fontColor=#FF2414;" parent="WIyWlLk6GJQsqaUBKTNV-1" vertex="1">
          <mxGeometry x="-280" y="240" width="150" height="30" as="geometry" />
        </mxCell>
        <mxCell id="TsE4t5QuG-D0fmhzeP_u-44" style="edgeStyle=orthogonalEdgeStyle;rounded=0;orthogonalLoop=1;jettySize=auto;html=1;exitX=1;exitY=0.5;exitDx=0;exitDy=0;exitPerimeter=0;entryX=1;entryY=0.75;entryDx=0;entryDy=0;fontSize=14;fontColor=#000000;" parent="WIyWlLk6GJQsqaUBKTNV-1" source="TsE4t5QuG-D0fmhzeP_u-42" target="TsE4t5QuG-D0fmhzeP_u-22" edge="1">
          <mxGeometry relative="1" as="geometry" />
        </mxCell>
        <mxCell id="TsE4t5QuG-D0fmhzeP_u-45" value="修改指标定义" style="edgeLabel;html=1;align=center;verticalAlign=middle;resizable=0;points=[];fontSize=14;fontColor=#000000;" parent="TsE4t5QuG-D0fmhzeP_u-44" vertex="1" connectable="0">
          <mxGeometry x="-0.0346" y="2" relative="1" as="geometry">
            <mxPoint as="offset" />
          </mxGeometry>
        </mxCell>
        <mxCell id="TsE4t5QuG-D0fmhzeP_u-47" value="与业务确认好信息，&lt;br&gt;编写指标需求" style="edgeStyle=orthogonalEdgeStyle;rounded=0;orthogonalLoop=1;jettySize=auto;html=1;exitX=0.5;exitY=1;exitDx=0;exitDy=0;exitPerimeter=0;entryX=0.5;entryY=0;entryDx=0;entryDy=0;fontSize=14;fontColor=#000000;" parent="WIyWlLk6GJQsqaUBKTNV-1" source="TsE4t5QuG-D0fmhzeP_u-42" target="TsE4t5QuG-D0fmhzeP_u-46" edge="1">
          <mxGeometry relative="1" as="geometry" />
        </mxCell>
        <mxCell id="TsE4t5QuG-D0fmhzeP_u-42" value="与业务确认业务含义、口径等信息" style="strokeWidth=2;html=1;shape=mxgraph.flowchart.decision;whiteSpace=wrap;strokeColor=#666666;fontSize=14;fontColor=#000000;" parent="WIyWlLk6GJQsqaUBKTNV-1" vertex="1">
          <mxGeometry x="-280" y="400" width="140" height="80" as="geometry" />
        </mxCell>
        <mxCell id="TsE4t5QuG-D0fmhzeP_u-52" style="edgeStyle=orthogonalEdgeStyle;rounded=0;orthogonalLoop=1;jettySize=auto;html=1;exitX=1;exitY=0.5;exitDx=0;exitDy=0;entryX=0;entryY=0.5;entryDx=0;entryDy=0;fontSize=14;fontColor=#000000;" parent="WIyWlLk6GJQsqaUBKTNV-1" source="TsE4t5QuG-D0fmhzeP_u-46" target="TsE4t5QuG-D0fmhzeP_u-48" edge="1">
          <mxGeometry relative="1" as="geometry" />
        </mxCell>
        <mxCell id="TsE4t5QuG-D0fmhzeP_u-53" style="edgeStyle=orthogonalEdgeStyle;rounded=0;orthogonalLoop=1;jettySize=auto;html=1;exitX=1;exitY=0.5;exitDx=0;exitDy=0;entryX=0;entryY=0.5;entryDx=0;entryDy=0;fontSize=14;fontColor=#000000;" parent="WIyWlLk6GJQsqaUBKTNV-1" source="TsE4t5QuG-D0fmhzeP_u-46" target="TsE4t5QuG-D0fmhzeP_u-50" edge="1">
          <mxGeometry relative="1" as="geometry" />
        </mxCell>
        <mxCell id="TsE4t5QuG-D0fmhzeP_u-54" style="edgeStyle=orthogonalEdgeStyle;rounded=0;orthogonalLoop=1;jettySize=auto;html=1;exitX=1;exitY=0.5;exitDx=0;exitDy=0;entryX=0;entryY=0.5;entryDx=0;entryDy=0;fontSize=14;fontColor=#000000;" parent="WIyWlLk6GJQsqaUBKTNV-1" source="TsE4t5QuG-D0fmhzeP_u-46" target="TsE4t5QuG-D0fmhzeP_u-51" edge="1">
          <mxGeometry relative="1" as="geometry" />
        </mxCell>
        <mxCell id="TsE4t5QuG-D0fmhzeP_u-46" value="指标需求" style="rounded=1;whiteSpace=wrap;html=1;fontSize=12;glass=0;strokeWidth=1;shadow=0;" parent="WIyWlLk6GJQsqaUBKTNV-1" vertex="1">
          <mxGeometry x="-280" y="560" width="140" height="40" as="geometry" />
        </mxCell>
        <mxCell id="TsE4t5QuG-D0fmhzeP_u-48" value="指标需求与报表格子对应关系" style="rounded=1;whiteSpace=wrap;html=1;fontSize=12;glass=0;strokeWidth=1;shadow=0;fillColor=#dae8fc;strokeColor=#6c8ebf;" parent="WIyWlLk6GJQsqaUBKTNV-1" vertex="1">
          <mxGeometry x="-40" y="480" width="160" height="40" as="geometry" />
        </mxCell>
        <mxCell id="TsE4t5QuG-D0fmhzeP_u-60" style="edgeStyle=orthogonalEdgeStyle;rounded=0;orthogonalLoop=1;jettySize=auto;html=1;exitX=1;exitY=0.5;exitDx=0;exitDy=0;entryX=0;entryY=0.5;entryDx=0;entryDy=0;fontSize=14;fontColor=#000000;" parent="WIyWlLk6GJQsqaUBKTNV-1" source="TsE4t5QuG-D0fmhzeP_u-50" target="TsE4t5QuG-D0fmhzeP_u-55" edge="1">
          <mxGeometry relative="1" as="geometry" />
        </mxCell>
        <mxCell id="TsE4t5QuG-D0fmhzeP_u-61" style="edgeStyle=orthogonalEdgeStyle;rounded=0;orthogonalLoop=1;jettySize=auto;html=1;exitX=1;exitY=0.5;exitDx=0;exitDy=0;entryX=0;entryY=0.5;entryDx=0;entryDy=0;fontSize=14;fontColor=#000000;" parent="WIyWlLk6GJQsqaUBKTNV-1" source="TsE4t5QuG-D0fmhzeP_u-50" target="TsE4t5QuG-D0fmhzeP_u-56" edge="1">
          <mxGeometry relative="1" as="geometry" />
        </mxCell>
        <mxCell id="TsE4t5QuG-D0fmhzeP_u-50" value="业务版本《指标定义》文件" style="rounded=1;whiteSpace=wrap;html=1;fontSize=12;glass=0;strokeWidth=1;shadow=0;fillColor=#dae8fc;strokeColor=#6c8ebf;" parent="WIyWlLk6GJQsqaUBKTNV-1" vertex="1">
          <mxGeometry x="-40" y="560" width="160" height="40" as="geometry" />
        </mxCell>
        <mxCell id="TsE4t5QuG-D0fmhzeP_u-59" style="edgeStyle=orthogonalEdgeStyle;rounded=0;orthogonalLoop=1;jettySize=auto;html=1;exitX=1;exitY=0.5;exitDx=0;exitDy=0;fontSize=14;fontColor=#000000;" parent="WIyWlLk6GJQsqaUBKTNV-1" source="TsE4t5QuG-D0fmhzeP_u-51" target="TsE4t5QuG-D0fmhzeP_u-57" edge="1">
          <mxGeometry relative="1" as="geometry" />
        </mxCell>
        <mxCell id="TsE4t5QuG-D0fmhzeP_u-51" value="开发版本《指标需求》文件" style="rounded=1;whiteSpace=wrap;html=1;fontSize=12;glass=0;strokeWidth=1;shadow=0;fillColor=#dae8fc;strokeColor=#6c8ebf;" parent="WIyWlLk6GJQsqaUBKTNV-1" vertex="1">
          <mxGeometry x="-40" y="640" width="160" height="40" as="geometry" />
        </mxCell>
        <mxCell id="TsE4t5QuG-D0fmhzeP_u-55" value="梳理指标标准" style="rounded=1;whiteSpace=wrap;html=1;fontSize=12;glass=0;strokeWidth=1;shadow=0;fillColor=#dae8fc;strokeColor=#6c8ebf;" parent="WIyWlLk6GJQsqaUBKTNV-1" vertex="1">
          <mxGeometry x="200" y="540" width="160" height="40" as="geometry" />
        </mxCell>
        <mxCell id="TsE4t5QuG-D0fmhzeP_u-56" value="指标管理流程" style="rounded=1;whiteSpace=wrap;html=1;fontSize=12;glass=0;strokeWidth=1;shadow=0;fillColor=#dae8fc;strokeColor=#6c8ebf;" parent="WIyWlLk6GJQsqaUBKTNV-1" vertex="1">
          <mxGeometry x="200" y="585" width="160" height="40" as="geometry" />
        </mxCell>
        <mxCell id="TsE4t5QuG-D0fmhzeP_u-57" value="指标测试方案" style="rounded=1;whiteSpace=wrap;html=1;fontSize=12;glass=0;strokeWidth=1;shadow=0;fillColor=#dae8fc;strokeColor=#6c8ebf;" parent="WIyWlLk6GJQsqaUBKTNV-1" vertex="1">
          <mxGeometry x="200" y="640" width="160" height="40" as="geometry" />
        </mxCell>
        <mxCell id="ZvzzSG2WTIvboMNPZyis-19" value="" style="rounded=1;whiteSpace=wrap;html=1;shadow=0;fontColor=#FFFFFF;fillColor=#FFFFFF;" parent="WIyWlLk6GJQsqaUBKTNV-1" vertex="1">
          <mxGeometry x="1040" y="520" width="620" height="80" as="geometry" />
        </mxCell>
        <mxCell id="ZvzzSG2WTIvboMNPZyis-21" value="&lt;font style=&quot;font-size: 14px;&quot; color=&quot;#000000&quot;&gt;&lt;b&gt;数据采集&lt;/b&gt;&lt;/font&gt;" style="text;html=1;strokeColor=none;fillColor=none;align=center;verticalAlign=middle;whiteSpace=wrap;rounded=0;shadow=0;fontColor=#FFFFFF;" parent="WIyWlLk6GJQsqaUBKTNV-1" vertex="1">
          <mxGeometry x="1050" y="545" width="60" height="30" as="geometry" />
        </mxCell>
        <mxCell id="ZvzzSG2WTIvboMNPZyis-22" value="" style="rounded=1;whiteSpace=wrap;html=1;shadow=0;fontSize=14;fontColor=#000000;fillColor=#FFFFFF;" parent="WIyWlLk6GJQsqaUBKTNV-1" vertex="1">
          <mxGeometry x="1121" y="530" width="519" height="60" as="geometry" />
        </mxCell>
        <mxCell id="ZvzzSG2WTIvboMNPZyis-23" value="&lt;font style=&quot;font-size: 12px;&quot;&gt;内外部各应用系统&lt;/font&gt;" style="text;html=1;strokeColor=none;fillColor=none;align=center;verticalAlign=middle;whiteSpace=wrap;rounded=0;shadow=0;fontSize=14;fontColor=#000000;" parent="WIyWlLk6GJQsqaUBKTNV-1" vertex="1">
          <mxGeometry x="1130" y="545" width="100" height="25" as="geometry" />
        </mxCell>
        <mxCell id="ZvzzSG2WTIvboMNPZyis-24" value="结构化数据" style="rounded=1;whiteSpace=wrap;html=1;shadow=0;fontSize=12;fontColor=#000000;fillColor=#FFFFFF;" parent="WIyWlLk6GJQsqaUBKTNV-1" vertex="1">
          <mxGeometry x="1241" y="540" width="79" height="40" as="geometry" />
        </mxCell>
        <mxCell id="ZvzzSG2WTIvboMNPZyis-25" value="非结构化数据" style="rounded=1;whiteSpace=wrap;html=1;shadow=0;fontSize=12;fontColor=#000000;fillColor=#FFFFFF;" parent="WIyWlLk6GJQsqaUBKTNV-1" vertex="1">
          <mxGeometry x="1330" y="540" width="79" height="40" as="geometry" />
        </mxCell>
        <mxCell id="ZvzzSG2WTIvboMNPZyis-26" value="半结构化数据" style="rounded=1;whiteSpace=wrap;html=1;shadow=0;fontSize=12;fontColor=#000000;fillColor=#FFFFFF;" parent="WIyWlLk6GJQsqaUBKTNV-1" vertex="1">
          <mxGeometry x="1420" y="540" width="79" height="40" as="geometry" />
        </mxCell>
        <mxCell id="ZvzzSG2WTIvboMNPZyis-27" value="......" style="rounded=1;whiteSpace=wrap;html=1;shadow=0;fontSize=12;fontColor=#000000;fillColor=#FFFFFF;" parent="WIyWlLk6GJQsqaUBKTNV-1" vertex="1">
          <mxGeometry x="1510" y="540" width="79" height="40" as="geometry" />
        </mxCell>
        <mxCell id="ZvzzSG2WTIvboMNPZyis-28" value="" style="rounded=1;whiteSpace=wrap;html=1;shadow=0;fontColor=#FFFFFF;fillColor=#FFFFFF;" parent="WIyWlLk6GJQsqaUBKTNV-1" vertex="1">
          <mxGeometry x="1040" y="150" width="620" height="360" as="geometry" />
        </mxCell>
        <mxCell id="ZvzzSG2WTIvboMNPZyis-30" value="&lt;font style=&quot;font-size: 14px;&quot; color=&quot;#000000&quot;&gt;&lt;b&gt;数据共享交换&lt;br&gt;层&lt;br&gt;&lt;/b&gt;&lt;/font&gt;" style="text;html=1;strokeColor=none;fillColor=none;align=center;verticalAlign=middle;whiteSpace=wrap;rounded=0;shadow=0;fontColor=#FFFFFF;" parent="WIyWlLk6GJQsqaUBKTNV-1" vertex="1">
          <mxGeometry x="1090" y="387.5" width="20" height="105" as="geometry" />
        </mxCell>
        <mxCell id="ZvzzSG2WTIvboMNPZyis-31" value="" style="rounded=1;whiteSpace=wrap;html=1;shadow=0;fontSize=14;fontColor=#000000;fillColor=#FFFFFF;" parent="WIyWlLk6GJQsqaUBKTNV-1" vertex="1">
          <mxGeometry x="1121" y="425" width="519" height="75" as="geometry" />
        </mxCell>
        <mxCell id="ZvzzSG2WTIvboMNPZyis-32" value="接口管理" style="rounded=1;whiteSpace=wrap;html=1;shadow=0;fontSize=12;fontColor=#000000;fillColor=#FFFFFF;" parent="WIyWlLk6GJQsqaUBKTNV-1" vertex="1">
          <mxGeometry x="1130" y="435" width="60" height="25" as="geometry" />
        </mxCell>
        <mxCell id="ZvzzSG2WTIvboMNPZyis-34" value="任务管理" style="rounded=1;whiteSpace=wrap;html=1;shadow=0;fontSize=12;fontColor=#000000;fillColor=#FFFFFF;" parent="WIyWlLk6GJQsqaUBKTNV-1" vertex="1">
          <mxGeometry x="1200" y="435" width="60" height="25" as="geometry" />
        </mxCell>
        <mxCell id="ZvzzSG2WTIvboMNPZyis-35" value="流程监控" style="rounded=1;whiteSpace=wrap;html=1;shadow=0;fontSize=12;fontColor=#000000;fillColor=#FFFFFF;" parent="WIyWlLk6GJQsqaUBKTNV-1" vertex="1">
          <mxGeometry x="1270" y="435" width="60" height="25" as="geometry" />
        </mxCell>
        <mxCell id="ZvzzSG2WTIvboMNPZyis-36" value="实时/批量" style="rounded=1;whiteSpace=wrap;html=1;shadow=0;fontSize=12;fontColor=#000000;fillColor=#FFFFFF;" parent="WIyWlLk6GJQsqaUBKTNV-1" vertex="1">
          <mxGeometry x="1340" y="435" width="60" height="25" as="geometry" />
        </mxCell>
        <mxCell id="ZvzzSG2WTIvboMNPZyis-37" value="策略配置" style="rounded=1;whiteSpace=wrap;html=1;shadow=0;fontSize=12;fontColor=#000000;fillColor=#FFFFFF;" parent="WIyWlLk6GJQsqaUBKTNV-1" vertex="1">
          <mxGeometry x="1409" y="435" width="61" height="25" as="geometry" />
        </mxCell>
        <mxCell id="ZvzzSG2WTIvboMNPZyis-38" value="质量检测" style="rounded=1;whiteSpace=wrap;html=1;shadow=0;fontSize=12;fontColor=#000000;fillColor=#FFFFFF;" parent="WIyWlLk6GJQsqaUBKTNV-1" vertex="1">
          <mxGeometry x="1550" y="435" width="60" height="25" as="geometry" />
        </mxCell>
        <mxCell id="ZvzzSG2WTIvboMNPZyis-39" value="数据对账" style="rounded=1;whiteSpace=wrap;html=1;shadow=0;fontSize=12;fontColor=#000000;fillColor=#FFFFFF;" parent="WIyWlLk6GJQsqaUBKTNV-1" vertex="1">
          <mxGeometry x="1480" y="435" width="60" height="25" as="geometry" />
        </mxCell>
        <mxCell id="ZvzzSG2WTIvboMNPZyis-40" value="数据融合" style="rounded=1;whiteSpace=wrap;html=1;shadow=0;fontSize=12;fontColor=#000000;fillColor=#FFFFFF;" parent="WIyWlLk6GJQsqaUBKTNV-1" vertex="1">
          <mxGeometry x="1130" y="465" width="60" height="25" as="geometry" />
        </mxCell>
        <mxCell id="ZvzzSG2WTIvboMNPZyis-41" value="动态脱敏" style="rounded=1;whiteSpace=wrap;html=1;shadow=0;fontSize=12;fontColor=#000000;fillColor=#FFFFFF;" parent="WIyWlLk6GJQsqaUBKTNV-1" vertex="1">
          <mxGeometry x="1200" y="465" width="60" height="25" as="geometry" />
        </mxCell>
        <mxCell id="ZvzzSG2WTIvboMNPZyis-42" value="数据分发" style="rounded=1;whiteSpace=wrap;html=1;shadow=0;fontSize=12;fontColor=#000000;fillColor=#FFFFFF;" parent="WIyWlLk6GJQsqaUBKTNV-1" vertex="1">
          <mxGeometry x="1270" y="465" width="60" height="25" as="geometry" />
        </mxCell>
        <mxCell id="ZvzzSG2WTIvboMNPZyis-43" value="容错与断点续传" style="rounded=1;whiteSpace=wrap;html=1;shadow=0;fontSize=12;fontColor=#000000;fillColor=#FFFFFF;" parent="WIyWlLk6GJQsqaUBKTNV-1" vertex="1">
          <mxGeometry x="1340" y="465" width="130" height="25" as="geometry" />
        </mxCell>
        <mxCell id="ZvzzSG2WTIvboMNPZyis-44" value="交换数据源管理" style="rounded=1;whiteSpace=wrap;html=1;shadow=0;fontSize=12;fontColor=#000000;fillColor=#FFFFFF;" parent="WIyWlLk6GJQsqaUBKTNV-1" vertex="1">
          <mxGeometry x="1121" y="380" width="89" height="40" as="geometry" />
        </mxCell>
        <mxCell id="ZvzzSG2WTIvboMNPZyis-45" value="交换调度管理" style="rounded=1;whiteSpace=wrap;html=1;shadow=0;fontSize=12;fontColor=#000000;fillColor=#FFFFFF;" parent="WIyWlLk6GJQsqaUBKTNV-1" vertex="1">
          <mxGeometry x="1260" y="380" width="89" height="40" as="geometry" />
        </mxCell>
        <mxCell id="ZvzzSG2WTIvboMNPZyis-46" value="交换监控预警管理" style="rounded=1;whiteSpace=wrap;html=1;shadow=0;fontSize=12;fontColor=#000000;fillColor=#FFFFFF;" parent="WIyWlLk6GJQsqaUBKTNV-1" vertex="1">
          <mxGeometry x="1399" y="380" width="100" height="40" as="geometry" />
        </mxCell>
        <mxCell id="ZvzzSG2WTIvboMNPZyis-47" value="用户权限管理" style="rounded=1;whiteSpace=wrap;html=1;shadow=0;fontSize=12;fontColor=#000000;fillColor=#FFFFFF;" parent="WIyWlLk6GJQsqaUBKTNV-1" vertex="1">
          <mxGeometry x="1540" y="380" width="100" height="40" as="geometry" />
        </mxCell>
        <mxCell id="ZvzzSG2WTIvboMNPZyis-48" value="接口管理" style="rounded=1;whiteSpace=wrap;html=1;shadow=0;fontSize=12;fontColor=#000000;fillColor=#FFFFFF;" parent="WIyWlLk6GJQsqaUBKTNV-1" vertex="1">
          <mxGeometry x="1121" y="340" width="60" height="25" as="geometry" />
        </mxCell>
        <mxCell id="ZvzzSG2WTIvboMNPZyis-49" value="&lt;font style=&quot;font-size: 14px;&quot; color=&quot;#000000&quot;&gt;&lt;b&gt;数据共享交换&lt;br&gt;层&lt;br&gt;&lt;/b&gt;&lt;/font&gt;" style="text;html=1;strokeColor=none;fillColor=none;align=center;verticalAlign=middle;whiteSpace=wrap;rounded=0;shadow=0;fontColor=#FFFFFF;" parent="WIyWlLk6GJQsqaUBKTNV-1" vertex="1">
          <mxGeometry x="1060" y="282.5" width="20" height="105" as="geometry" />
        </mxCell>
        <mxCell id="ZvzzSG2WTIvboMNPZyis-50" value="" style="rounded=1;whiteSpace=wrap;html=1;shadow=0;fontSize=12;fontColor=#000000;fillColor=#FFFFFF;" parent="WIyWlLk6GJQsqaUBKTNV-1" vertex="1">
          <mxGeometry x="1800" y="160" width="150" height="320" as="geometry" />
        </mxCell>
        <mxCell id="ZvzzSG2WTIvboMNPZyis-53" value="策略配置管理" style="rounded=1;whiteSpace=wrap;html=1;shadow=0;fontSize=12;fontColor=#000000;fillColor=#FFFFFF;" parent="WIyWlLk6GJQsqaUBKTNV-1" vertex="1">
          <mxGeometry x="1880" y="201.25" width="60" height="30" as="geometry" />
        </mxCell>
        <mxCell id="ZvzzSG2WTIvboMNPZyis-54" value="数据清洗" style="rounded=1;whiteSpace=wrap;html=1;shadow=0;fontSize=12;fontColor=#000000;fillColor=#FFFFFF;" parent="WIyWlLk6GJQsqaUBKTNV-1" vertex="1">
          <mxGeometry x="1810" y="243.75" width="60" height="30" as="geometry" />
        </mxCell>
        <mxCell id="ZvzzSG2WTIvboMNPZyis-55" value="数据提取" style="rounded=1;whiteSpace=wrap;html=1;shadow=0;fontSize=12;fontColor=#000000;fillColor=#FFFFFF;" parent="WIyWlLk6GJQsqaUBKTNV-1" vertex="1">
          <mxGeometry x="1810" y="201.25" width="60" height="30" as="geometry" />
        </mxCell>
        <mxCell id="ZvzzSG2WTIvboMNPZyis-56" value="数据存储" style="rounded=1;whiteSpace=wrap;html=1;shadow=0;fontSize=12;fontColor=#000000;fillColor=#FFFFFF;" parent="WIyWlLk6GJQsqaUBKTNV-1" vertex="1">
          <mxGeometry x="1880" y="243.75" width="60" height="30" as="geometry" />
        </mxCell>
        <mxCell id="ZvzzSG2WTIvboMNPZyis-57" value="数据关联" style="rounded=1;whiteSpace=wrap;html=1;shadow=0;fontSize=12;fontColor=#000000;fillColor=#FFFFFF;" parent="WIyWlLk6GJQsqaUBKTNV-1" vertex="1">
          <mxGeometry x="1810" y="281.25" width="60" height="30" as="geometry" />
        </mxCell>
        <mxCell id="ZvzzSG2WTIvboMNPZyis-58" value="数据模型建设" style="rounded=1;whiteSpace=wrap;html=1;shadow=0;fontSize=12;fontColor=#000000;fillColor=#FFFFFF;" parent="WIyWlLk6GJQsqaUBKTNV-1" vertex="1">
          <mxGeometry x="1880" y="281.25" width="60" height="30" as="geometry" />
        </mxCell>
        <mxCell id="ZvzzSG2WTIvboMNPZyis-59" value="数据比对" style="rounded=1;whiteSpace=wrap;html=1;shadow=0;fontSize=12;fontColor=#000000;fillColor=#FFFFFF;" parent="WIyWlLk6GJQsqaUBKTNV-1" vertex="1">
          <mxGeometry x="1810" y="321.25" width="60" height="30" as="geometry" />
        </mxCell>
        <mxCell id="ZvzzSG2WTIvboMNPZyis-60" value="数据标识" style="rounded=1;whiteSpace=wrap;html=1;shadow=0;fontSize=12;fontColor=#000000;fillColor=#FFFFFF;" parent="WIyWlLk6GJQsqaUBKTNV-1" vertex="1">
          <mxGeometry x="1810" y="361.25" width="60" height="30" as="geometry" />
        </mxCell>
        <mxCell id="ZvzzSG2WTIvboMNPZyis-61" value="数据纠错" style="rounded=1;whiteSpace=wrap;html=1;shadow=0;fontSize=12;fontColor=#000000;fillColor=#FFFFFF;" parent="WIyWlLk6GJQsqaUBKTNV-1" vertex="1">
          <mxGeometry x="1810" y="401.25" width="60" height="30" as="geometry" />
        </mxCell>
        <mxCell id="ZvzzSG2WTIvboMNPZyis-62" value="任务调度" style="rounded=1;whiteSpace=wrap;html=1;shadow=0;fontSize=12;fontColor=#000000;fillColor=#FFFFFF;" parent="WIyWlLk6GJQsqaUBKTNV-1" vertex="1">
          <mxGeometry x="1810" y="438.75" width="60" height="30" as="geometry" />
        </mxCell>
        <mxCell id="ZvzzSG2WTIvboMNPZyis-63" value="数据标签" style="rounded=1;whiteSpace=wrap;html=1;shadow=0;fontSize=12;fontColor=#000000;fillColor=#FFFFFF;" parent="WIyWlLk6GJQsqaUBKTNV-1" vertex="1">
          <mxGeometry x="1880" y="320" width="60" height="30" as="geometry" />
        </mxCell>
        <mxCell id="ZvzzSG2WTIvboMNPZyis-64" value="知识图谱" style="rounded=1;whiteSpace=wrap;html=1;shadow=0;fontSize=12;fontColor=#000000;fillColor=#FFFFFF;" parent="WIyWlLk6GJQsqaUBKTNV-1" vertex="1">
          <mxGeometry x="1880" y="360" width="60" height="30" as="geometry" />
        </mxCell>
        <mxCell id="ZvzzSG2WTIvboMNPZyis-65" value="事理图谱" style="rounded=1;whiteSpace=wrap;html=1;shadow=0;fontSize=12;fontColor=#000000;fillColor=#FFFFFF;" parent="WIyWlLk6GJQsqaUBKTNV-1" vertex="1">
          <mxGeometry x="1880" y="400" width="60" height="30" as="geometry" />
        </mxCell>
        <mxCell id="ZvzzSG2WTIvboMNPZyis-66" value="语义分析" style="rounded=1;whiteSpace=wrap;html=1;shadow=0;fontSize=12;fontColor=#000000;fillColor=#FFFFFF;" parent="WIyWlLk6GJQsqaUBKTNV-1" vertex="1">
          <mxGeometry x="1880" y="440" width="60" height="30" as="geometry" />
        </mxCell>
        <mxCell id="ZvzzSG2WTIvboMNPZyis-67" value="&lt;b&gt;&lt;font style=&quot;font-size: 14px;&quot;&gt;数据处理&lt;/font&gt;&lt;/b&gt;" style="text;html=1;strokeColor=none;fillColor=none;align=center;verticalAlign=middle;whiteSpace=wrap;rounded=0;shadow=0;fontSize=12;fontColor=#000000;" parent="WIyWlLk6GJQsqaUBKTNV-1" vertex="1">
          <mxGeometry x="1825" y="160" width="100" height="40" as="geometry" />
        </mxCell>
        <mxCell id="ZvzzSG2WTIvboMNPZyis-68" value="" style="rounded=1;whiteSpace=wrap;html=1;shadow=0;fontSize=12;fontColor=#000000;fillColor=#FFFFFF;" parent="WIyWlLk6GJQsqaUBKTNV-1" vertex="1">
          <mxGeometry x="1970" y="160" width="130" height="320" as="geometry" />
        </mxCell>
        <mxCell id="ZvzzSG2WTIvboMNPZyis-71" value="数据资源目录" style="rounded=1;whiteSpace=wrap;html=1;shadow=0;fontSize=12;fontColor=#000000;fillColor=#FFFFFF;" parent="WIyWlLk6GJQsqaUBKTNV-1" vertex="1">
          <mxGeometry x="1980" y="200" width="100" height="20" as="geometry" />
        </mxCell>
        <mxCell id="ZvzzSG2WTIvboMNPZyis-83" value="&lt;b&gt;&lt;font style=&quot;font-size: 14px;&quot;&gt;数据治理&lt;/font&gt;&lt;/b&gt;" style="text;html=1;strokeColor=none;fillColor=none;align=center;verticalAlign=middle;whiteSpace=wrap;rounded=0;shadow=0;fontSize=12;fontColor=#000000;" parent="WIyWlLk6GJQsqaUBKTNV-1" vertex="1">
          <mxGeometry x="1980" y="160" width="100" height="40" as="geometry" />
        </mxCell>
        <mxCell id="ZvzzSG2WTIvboMNPZyis-86" value="元数据管理" style="rounded=1;whiteSpace=wrap;html=1;shadow=0;fontSize=12;fontColor=#000000;fillColor=#FFFFFF;" parent="WIyWlLk6GJQsqaUBKTNV-1" vertex="1">
          <mxGeometry x="1980" y="231.25" width="100" height="20" as="geometry" />
        </mxCell>
        <mxCell id="ZvzzSG2WTIvboMNPZyis-87" value="数据分级分类" style="rounded=1;whiteSpace=wrap;html=1;shadow=0;fontSize=12;fontColor=#000000;fillColor=#FFFFFF;" parent="WIyWlLk6GJQsqaUBKTNV-1" vertex="1">
          <mxGeometry x="1980" y="262.5" width="100" height="20" as="geometry" />
        </mxCell>
        <mxCell id="ZvzzSG2WTIvboMNPZyis-88" value="数据血缘管理" style="rounded=1;whiteSpace=wrap;html=1;shadow=0;fontSize=12;fontColor=#000000;fillColor=#FFFFFF;" parent="WIyWlLk6GJQsqaUBKTNV-1" vertex="1">
          <mxGeometry x="1980" y="300" width="100" height="20" as="geometry" />
        </mxCell>
        <mxCell id="ZvzzSG2WTIvboMNPZyis-89" value="数据标准管理" style="rounded=1;whiteSpace=wrap;html=1;shadow=0;fontSize=12;fontColor=#000000;fillColor=#FFFFFF;" parent="WIyWlLk6GJQsqaUBKTNV-1" vertex="1">
          <mxGeometry x="1980" y="331.25" width="100" height="20" as="geometry" />
        </mxCell>
        <mxCell id="ZvzzSG2WTIvboMNPZyis-90" value="生命周期管理" style="rounded=1;whiteSpace=wrap;html=1;shadow=0;fontSize=12;fontColor=#000000;fillColor=#FFFFFF;" parent="WIyWlLk6GJQsqaUBKTNV-1" vertex="1">
          <mxGeometry x="1980" y="361.25" width="100" height="20" as="geometry" />
        </mxCell>
        <mxCell id="ZvzzSG2WTIvboMNPZyis-91" value="数据质量管理" style="rounded=1;whiteSpace=wrap;html=1;shadow=0;fontSize=12;fontColor=#000000;fillColor=#FFFFFF;" parent="WIyWlLk6GJQsqaUBKTNV-1" vertex="1">
          <mxGeometry x="1980" y="391.25" width="100" height="20" as="geometry" />
        </mxCell>
        <mxCell id="ZvzzSG2WTIvboMNPZyis-92" value="数据运维管理" style="rounded=1;whiteSpace=wrap;html=1;shadow=0;fontSize=12;fontColor=#000000;fillColor=#FFFFFF;" parent="WIyWlLk6GJQsqaUBKTNV-1" vertex="1">
          <mxGeometry x="1980" y="420" width="100" height="20" as="geometry" />
        </mxCell>
        <mxCell id="ZvzzSG2WTIvboMNPZyis-93" value="数据运营管理" style="rounded=1;whiteSpace=wrap;html=1;shadow=0;fontSize=12;fontColor=#000000;fillColor=#FFFFFF;" parent="WIyWlLk6GJQsqaUBKTNV-1" vertex="1">
          <mxGeometry x="1980" y="448.75" width="100" height="20" as="geometry" />
        </mxCell>
        <mxCell id="ZvzzSG2WTIvboMNPZyis-94" value="" style="rounded=1;whiteSpace=wrap;html=1;shadow=0;fontSize=12;fontColor=#000000;fillColor=#FFFFFF;" parent="WIyWlLk6GJQsqaUBKTNV-1" vertex="1">
          <mxGeometry x="2120" y="160" width="150" height="320" as="geometry" />
        </mxCell>
        <mxCell id="ZvzzSG2WTIvboMNPZyis-95" value="元数据库" style="rounded=1;whiteSpace=wrap;html=1;shadow=0;fontSize=12;fontColor=#000000;fillColor=#FFFFFF;" parent="WIyWlLk6GJQsqaUBKTNV-1" vertex="1">
          <mxGeometry x="2200" y="201.25" width="60" height="30" as="geometry" />
        </mxCell>
        <mxCell id="ZvzzSG2WTIvboMNPZyis-96" value="资源库" style="rounded=1;whiteSpace=wrap;html=1;shadow=0;fontSize=12;fontColor=#000000;fillColor=#FFFFFF;" parent="WIyWlLk6GJQsqaUBKTNV-1" vertex="1">
          <mxGeometry x="2130" y="265" width="60" height="30" as="geometry" />
        </mxCell>
        <mxCell id="ZvzzSG2WTIvboMNPZyis-97" value="原始库" style="rounded=1;whiteSpace=wrap;html=1;shadow=0;fontSize=12;fontColor=#000000;fillColor=#FFFFFF;" parent="WIyWlLk6GJQsqaUBKTNV-1" vertex="1">
          <mxGeometry x="2130" y="201.25" width="60" height="30" as="geometry" />
        </mxCell>
        <mxCell id="ZvzzSG2WTIvboMNPZyis-98" value="知识库" style="rounded=1;whiteSpace=wrap;html=1;shadow=0;fontSize=12;fontColor=#000000;fillColor=#FFFFFF;" parent="WIyWlLk6GJQsqaUBKTNV-1" vertex="1">
          <mxGeometry x="2200" y="262.5" width="60" height="30" as="geometry" />
        </mxCell>
        <mxCell id="ZvzzSG2WTIvboMNPZyis-99" value="主体库" style="rounded=1;whiteSpace=wrap;html=1;shadow=0;fontSize=12;fontColor=#000000;fillColor=#FFFFFF;" parent="WIyWlLk6GJQsqaUBKTNV-1" vertex="1">
          <mxGeometry x="2130" y="321.25" width="60" height="30" as="geometry" />
        </mxCell>
        <mxCell id="ZvzzSG2WTIvboMNPZyis-100" value="管理信息库" style="rounded=1;whiteSpace=wrap;html=1;shadow=0;fontSize=12;fontColor=#000000;fillColor=#FFFFFF;" parent="WIyWlLk6GJQsqaUBKTNV-1" vertex="1">
          <mxGeometry x="2200" y="321.25" width="60" height="30" as="geometry" />
        </mxCell>
        <mxCell id="ZvzzSG2WTIvboMNPZyis-101" value="业务库" style="rounded=1;whiteSpace=wrap;html=1;shadow=0;fontSize=12;fontColor=#000000;fillColor=#FFFFFF;" parent="WIyWlLk6GJQsqaUBKTNV-1" vertex="1">
          <mxGeometry x="2130" y="380" width="60" height="30" as="geometry" />
        </mxCell>
        <mxCell id="ZvzzSG2WTIvboMNPZyis-104" value="数据资源目录库" style="rounded=1;whiteSpace=wrap;html=1;shadow=0;fontSize=12;fontColor=#000000;fillColor=#FFFFFF;" parent="WIyWlLk6GJQsqaUBKTNV-1" vertex="1">
          <mxGeometry x="2130" y="432.5" width="130" height="30" as="geometry" />
        </mxCell>
        <mxCell id="ZvzzSG2WTIvboMNPZyis-105" value="统一索引库" style="rounded=1;whiteSpace=wrap;html=1;shadow=0;fontSize=12;fontColor=#000000;fillColor=#FFFFFF;" parent="WIyWlLk6GJQsqaUBKTNV-1" vertex="1">
          <mxGeometry x="2200" y="380" width="60" height="30" as="geometry" />
        </mxCell>
        <mxCell id="ZvzzSG2WTIvboMNPZyis-109" value="&lt;b&gt;&lt;font style=&quot;font-size: 14px;&quot;&gt;数据组织&lt;/font&gt;&lt;/b&gt;" style="text;html=1;strokeColor=none;fillColor=none;align=center;verticalAlign=middle;whiteSpace=wrap;rounded=0;shadow=0;fontSize=12;fontColor=#000000;" parent="WIyWlLk6GJQsqaUBKTNV-1" vertex="1">
          <mxGeometry x="2145" y="160" width="100" height="40" as="geometry" />
        </mxCell>
        <mxCell id="ZvzzSG2WTIvboMNPZyis-110" value="" style="rounded=1;whiteSpace=wrap;html=1;shadow=0;fontSize=12;fontColor=#000000;fillColor=#FFFFFF;" parent="WIyWlLk6GJQsqaUBKTNV-1" vertex="1">
          <mxGeometry x="2290" y="160" width="190" height="140" as="geometry" />
        </mxCell>
        <mxCell id="ZvzzSG2WTIvboMNPZyis-120" value="&lt;b&gt;&lt;font style=&quot;font-size: 14px;&quot;&gt;数据挖掘&lt;/font&gt;&lt;/b&gt;" style="text;html=1;strokeColor=none;fillColor=none;align=center;verticalAlign=middle;whiteSpace=wrap;rounded=0;shadow=0;fontSize=12;fontColor=#000000;" parent="WIyWlLk6GJQsqaUBKTNV-1" vertex="1">
          <mxGeometry x="2335" y="160" width="100" height="40" as="geometry" />
        </mxCell>
        <mxCell id="ZvzzSG2WTIvboMNPZyis-121" value="训练数据处理" style="rounded=1;whiteSpace=wrap;html=1;shadow=0;fontSize=12;fontColor=#000000;fillColor=#FFFFFF;" parent="WIyWlLk6GJQsqaUBKTNV-1" vertex="1">
          <mxGeometry x="2300" y="200" width="80" height="20" as="geometry" />
        </mxCell>
        <mxCell id="ZvzzSG2WTIvboMNPZyis-122" value="算法模型管理" style="rounded=1;whiteSpace=wrap;html=1;shadow=0;fontSize=12;fontColor=#000000;fillColor=#FFFFFF;" parent="WIyWlLk6GJQsqaUBKTNV-1" vertex="1">
          <mxGeometry x="2390" y="200" width="80" height="20" as="geometry" />
        </mxCell>
        <mxCell id="ZvzzSG2WTIvboMNPZyis-123" value="模型训练数据" style="rounded=1;whiteSpace=wrap;html=1;shadow=0;fontSize=12;fontColor=#000000;fillColor=#FFFFFF;" parent="WIyWlLk6GJQsqaUBKTNV-1" vertex="1">
          <mxGeometry x="2300" y="231.25" width="80" height="20" as="geometry" />
        </mxCell>
        <mxCell id="ZvzzSG2WTIvboMNPZyis-124" value="模型评价体系" style="rounded=1;whiteSpace=wrap;html=1;shadow=0;fontSize=12;fontColor=#000000;fillColor=#FFFFFF;" parent="WIyWlLk6GJQsqaUBKTNV-1" vertex="1">
          <mxGeometry x="2300" y="262.5" width="80" height="20" as="geometry" />
        </mxCell>
        <mxCell id="ZvzzSG2WTIvboMNPZyis-125" value="检索服务" style="rounded=1;whiteSpace=wrap;html=1;shadow=0;fontSize=12;fontColor=#000000;fillColor=#FFFFFF;" parent="WIyWlLk6GJQsqaUBKTNV-1" vertex="1">
          <mxGeometry x="2390" y="231.25" width="80" height="20" as="geometry" />
        </mxCell>
        <mxCell id="ZvzzSG2WTIvboMNPZyis-126" value="数据挖掘模型" style="rounded=1;whiteSpace=wrap;html=1;shadow=0;fontSize=12;fontColor=#000000;fillColor=#FFFFFF;" parent="WIyWlLk6GJQsqaUBKTNV-1" vertex="1">
          <mxGeometry x="2390" y="262.5" width="80" height="20" as="geometry" />
        </mxCell>
        <mxCell id="ZvzzSG2WTIvboMNPZyis-127" value="" style="rounded=1;whiteSpace=wrap;html=1;shadow=0;fontSize=12;fontColor=#000000;fillColor=#FFFFFF;" parent="WIyWlLk6GJQsqaUBKTNV-1" vertex="1">
          <mxGeometry x="2290" y="310" width="190" height="170" as="geometry" />
        </mxCell>
        <mxCell id="ZvzzSG2WTIvboMNPZyis-128" value="&lt;b&gt;&lt;font style=&quot;font-size: 14px;&quot;&gt;数据服务&lt;/font&gt;&lt;/b&gt;" style="text;html=1;strokeColor=none;fillColor=none;align=center;verticalAlign=middle;whiteSpace=wrap;rounded=0;shadow=0;fontSize=12;fontColor=#000000;" parent="WIyWlLk6GJQsqaUBKTNV-1" vertex="1">
          <mxGeometry x="2335" y="313.75" width="100" height="40" as="geometry" />
        </mxCell>
        <mxCell id="ZvzzSG2WTIvboMNPZyis-129" value="数据服务总线" style="rounded=1;whiteSpace=wrap;html=1;shadow=0;fontSize=12;fontColor=#000000;fillColor=#FFFFFF;" parent="WIyWlLk6GJQsqaUBKTNV-1" vertex="1">
          <mxGeometry x="2300" y="353.75" width="80" height="20" as="geometry" />
        </mxCell>
        <mxCell id="ZvzzSG2WTIvboMNPZyis-130" value="智能应用服务" style="rounded=1;whiteSpace=wrap;html=1;shadow=0;fontSize=12;fontColor=#000000;fillColor=#FFFFFF;" parent="WIyWlLk6GJQsqaUBKTNV-1" vertex="1">
          <mxGeometry x="2390" y="353.75" width="80" height="20" as="geometry" />
        </mxCell>
        <mxCell id="ZvzzSG2WTIvboMNPZyis-131" value="数据服务场景" style="rounded=1;whiteSpace=wrap;html=1;shadow=0;fontSize=12;fontColor=#000000;fillColor=#FFFFFF;" parent="WIyWlLk6GJQsqaUBKTNV-1" vertex="1">
          <mxGeometry x="2300" y="385" width="80" height="20" as="geometry" />
        </mxCell>
        <mxCell id="ZvzzSG2WTIvboMNPZyis-132" value="数据管理服务" style="rounded=1;whiteSpace=wrap;html=1;shadow=0;fontSize=12;fontColor=#000000;fillColor=#FFFFFF;" parent="WIyWlLk6GJQsqaUBKTNV-1" vertex="1">
          <mxGeometry x="2300" y="416.25" width="80" height="20" as="geometry" />
        </mxCell>
        <mxCell id="ZvzzSG2WTIvboMNPZyis-133" value="数据交换服务" style="rounded=1;whiteSpace=wrap;html=1;shadow=0;fontSize=12;fontColor=#000000;fillColor=#FFFFFF;" parent="WIyWlLk6GJQsqaUBKTNV-1" vertex="1">
          <mxGeometry x="2390" y="385" width="80" height="20" as="geometry" />
        </mxCell>
        <mxCell id="ZvzzSG2WTIvboMNPZyis-134" value="图数据服务" style="rounded=1;whiteSpace=wrap;html=1;shadow=0;fontSize=12;fontColor=#000000;fillColor=#FFFFFF;" parent="WIyWlLk6GJQsqaUBKTNV-1" vertex="1">
          <mxGeometry x="2390" y="416.25" width="80" height="20" as="geometry" />
        </mxCell>
        <mxCell id="ZvzzSG2WTIvboMNPZyis-135" value="可视化数据服务" style="rounded=1;whiteSpace=wrap;html=1;shadow=0;fontSize=12;fontColor=#000000;fillColor=#FFFFFF;" parent="WIyWlLk6GJQsqaUBKTNV-1" vertex="1">
          <mxGeometry x="2335" y="448.75" width="95" height="20" as="geometry" />
        </mxCell>
        <mxCell id="ZvzzSG2WTIvboMNPZyis-136" value="" style="rounded=1;whiteSpace=wrap;html=1;shadow=0;fontSize=12;fontColor=#000000;fillColor=#FFFFFF;" parent="WIyWlLk6GJQsqaUBKTNV-1" vertex="1">
          <mxGeometry x="1800" y="492.5" width="680" height="67.5" as="geometry" />
        </mxCell>
        <mxCell id="ZvzzSG2WTIvboMNPZyis-137" value="&lt;b&gt;&lt;font style=&quot;font-size: 14px;&quot;&gt;数据接入&lt;/font&gt;&lt;/b&gt;" style="text;html=1;strokeColor=none;fillColor=none;align=center;verticalAlign=middle;whiteSpace=wrap;rounded=0;shadow=0;fontSize=12;fontColor=#000000;" parent="WIyWlLk6GJQsqaUBKTNV-1" vertex="1">
          <mxGeometry x="1800" y="505" width="80" height="40" as="geometry" />
        </mxCell>
        <mxCell id="ZvzzSG2WTIvboMNPZyis-138" value="接入策略配置" style="rounded=1;whiteSpace=wrap;html=1;shadow=0;fontSize=12;fontColor=#000000;fillColor=#FFFFFF;" parent="WIyWlLk6GJQsqaUBKTNV-1" vertex="1">
          <mxGeometry x="2020" y="502.5" width="80" height="20" as="geometry" />
        </mxCell>
        <mxCell id="ZvzzSG2WTIvboMNPZyis-139" value="数据接入" style="rounded=1;whiteSpace=wrap;html=1;shadow=0;fontSize=12;fontColor=#000000;fillColor=#FFFFFF;" parent="WIyWlLk6GJQsqaUBKTNV-1" vertex="1">
          <mxGeometry x="1900" y="502.5" width="80" height="20" as="geometry" />
        </mxCell>
        <mxCell id="ZvzzSG2WTIvboMNPZyis-140" value="接入数据统计" style="rounded=1;whiteSpace=wrap;html=1;shadow=0;fontSize=12;fontColor=#000000;fillColor=#FFFFFF;" parent="WIyWlLk6GJQsqaUBKTNV-1" vertex="1">
          <mxGeometry x="2020" y="530" width="80" height="20" as="geometry" />
        </mxCell>
        <mxCell id="ZvzzSG2WTIvboMNPZyis-141" value="接入解压解密" style="rounded=1;whiteSpace=wrap;html=1;shadow=0;fontSize=12;fontColor=#000000;fillColor=#FFFFFF;" parent="WIyWlLk6GJQsqaUBKTNV-1" vertex="1">
          <mxGeometry x="2155" y="502.5" width="80" height="20" as="geometry" />
        </mxCell>
        <mxCell id="ZvzzSG2WTIvboMNPZyis-142" value="接入任务管理" style="rounded=1;whiteSpace=wrap;html=1;shadow=0;fontSize=12;fontColor=#000000;fillColor=#FFFFFF;" parent="WIyWlLk6GJQsqaUBKTNV-1" vertex="1">
          <mxGeometry x="1900" y="530" width="80" height="20" as="geometry" />
        </mxCell>
        <mxCell id="ZvzzSG2WTIvboMNPZyis-143" value="接入数据对账" style="rounded=1;whiteSpace=wrap;html=1;shadow=0;fontSize=12;fontColor=#000000;fillColor=#FFFFFF;" parent="WIyWlLk6GJQsqaUBKTNV-1" vertex="1">
          <mxGeometry x="2155" y="530" width="80" height="20" as="geometry" />
        </mxCell>
        <mxCell id="ZvzzSG2WTIvboMNPZyis-145" value="接入断点续传" style="rounded=1;whiteSpace=wrap;html=1;shadow=0;fontSize=12;fontColor=#000000;fillColor=#FFFFFF;" parent="WIyWlLk6GJQsqaUBKTNV-1" vertex="1">
          <mxGeometry x="2270" y="502.5" width="80" height="20" as="geometry" />
        </mxCell>
        <mxCell id="ZvzzSG2WTIvboMNPZyis-146" value="接入数据分发" style="rounded=1;whiteSpace=wrap;html=1;shadow=0;fontSize=12;fontColor=#000000;fillColor=#FFFFFF;" parent="WIyWlLk6GJQsqaUBKTNV-1" vertex="1">
          <mxGeometry x="2390" y="502.5" width="80" height="20" as="geometry" />
        </mxCell>
        <mxCell id="ZvzzSG2WTIvboMNPZyis-150" value="接入数据质量检测" style="rounded=1;whiteSpace=wrap;html=1;shadow=0;fontSize=12;fontColor=#000000;fillColor=#FFFFFF;" parent="WIyWlLk6GJQsqaUBKTNV-1" vertex="1">
          <mxGeometry x="2270" y="530" width="200" height="20" as="geometry" />
        </mxCell>
        <mxCell id="ZvzzSG2WTIvboMNPZyis-151" value="" style="rounded=1;whiteSpace=wrap;html=1;shadow=0;fontSize=12;fontColor=#000000;fillColor=#FFFFFF;" parent="WIyWlLk6GJQsqaUBKTNV-1" vertex="1">
          <mxGeometry x="1800" y="100" width="680" height="47.5" as="geometry" />
        </mxCell>
        <mxCell id="ZvzzSG2WTIvboMNPZyis-152" value="&lt;span style=&quot;font-size: 14px;&quot;&gt;&lt;b&gt;统一管理&lt;/b&gt;&lt;/span&gt;" style="text;html=1;strokeColor=none;fillColor=none;align=center;verticalAlign=middle;whiteSpace=wrap;rounded=0;shadow=0;fontSize=12;fontColor=#000000;" parent="WIyWlLk6GJQsqaUBKTNV-1" vertex="1">
          <mxGeometry x="1800" y="105" width="80" height="40" as="geometry" />
        </mxCell>
        <mxCell id="ZvzzSG2WTIvboMNPZyis-162" value="账号统一管理" style="rounded=1;whiteSpace=wrap;html=1;shadow=0;fontSize=12;fontColor=#000000;fillColor=#FFFFFF;" parent="WIyWlLk6GJQsqaUBKTNV-1" vertex="1">
          <mxGeometry x="1965" y="110" width="130" height="30" as="geometry" />
        </mxCell>
        <mxCell id="ZvzzSG2WTIvboMNPZyis-163" value="权限统一管理" style="rounded=1;whiteSpace=wrap;html=1;shadow=0;fontSize=12;fontColor=#000000;fillColor=#FFFFFF;" parent="WIyWlLk6GJQsqaUBKTNV-1" vertex="1">
          <mxGeometry x="2270" y="110" width="130" height="30" as="geometry" />
        </mxCell>
        <mxCell id="ZvzzSG2WTIvboMNPZyis-164" value="" style="rounded=0;whiteSpace=wrap;html=1;shadow=0;fontSize=14;fontColor=#000000;fillColor=#FFFFFF;" parent="WIyWlLk6GJQsqaUBKTNV-1" vertex="1">
          <mxGeometry x="1840" y="640" width="600" height="200" as="geometry" />
        </mxCell>
        <mxCell id="ZvzzSG2WTIvboMNPZyis-165" value="&lt;b&gt;数据接入&lt;/b&gt;" style="rounded=1;whiteSpace=wrap;html=1;shadow=0;fontSize=14;fontColor=#000000;fillColor=#FFE6CC;" parent="WIyWlLk6GJQsqaUBKTNV-1" vertex="1">
          <mxGeometry x="1840" y="860" width="600" height="40" as="geometry" />
        </mxCell>
        <mxCell id="ZvzzSG2WTIvboMNPZyis-166" value="&lt;font style=&quot;font-size: 12px;&quot;&gt;数据接入&lt;/font&gt;" style="rounded=1;whiteSpace=wrap;html=1;shadow=0;fontSize=14;fontColor=#000000;fillColor=#FFE6CC;" parent="WIyWlLk6GJQsqaUBKTNV-1" vertex="1">
          <mxGeometry x="1850" y="800" width="580" height="30" as="geometry" />
        </mxCell>
        <mxCell id="ZvzzSG2WTIvboMNPZyis-168" value="&lt;font style=&quot;font-size: 12px;&quot;&gt;数据治理&lt;/font&gt;" style="rounded=1;whiteSpace=wrap;html=1;shadow=0;fontSize=14;fontColor=#000000;fillColor=#FFE6CC;" parent="WIyWlLk6GJQsqaUBKTNV-1" vertex="1">
          <mxGeometry x="1850" y="760" width="580" height="30" as="geometry" />
        </mxCell>
        <mxCell id="ZvzzSG2WTIvboMNPZyis-169" value="&lt;font style=&quot;font-size: 12px;&quot;&gt;数据组织&lt;/font&gt;" style="rounded=1;whiteSpace=wrap;html=1;shadow=0;fontSize=14;fontColor=#000000;fillColor=#FFE6CC;" parent="WIyWlLk6GJQsqaUBKTNV-1" vertex="1">
          <mxGeometry x="1850" y="720" width="580" height="30" as="geometry" />
        </mxCell>
        <mxCell id="ZvzzSG2WTIvboMNPZyis-170" value="&lt;font style=&quot;font-size: 12px;&quot;&gt;数据挖掘&lt;/font&gt;" style="rounded=1;whiteSpace=wrap;html=1;shadow=0;fontSize=14;fontColor=#000000;fillColor=#FFE6CC;" parent="WIyWlLk6GJQsqaUBKTNV-1" vertex="1">
          <mxGeometry x="1850" y="680" width="580" height="30" as="geometry" />
        </mxCell>
        <mxCell id="ZvzzSG2WTIvboMNPZyis-171" value="" style="shape=singleArrow;direction=north;whiteSpace=wrap;html=1;shadow=0;fontSize=12;fontColor=#000000;fillColor=#3333FF;" parent="WIyWlLk6GJQsqaUBKTNV-1" vertex="1">
          <mxGeometry x="1865" y="840" width="20" height="20" as="geometry" />
        </mxCell>
        <mxCell id="ZvzzSG2WTIvboMNPZyis-173" value="" style="shape=singleArrow;direction=north;whiteSpace=wrap;html=1;shadow=0;fontSize=12;fontColor=#000000;fillColor=#3333FF;" parent="WIyWlLk6GJQsqaUBKTNV-1" vertex="1">
          <mxGeometry x="2130" y="840" width="20" height="20" as="geometry" />
        </mxCell>
        <mxCell id="ZvzzSG2WTIvboMNPZyis-174" value="" style="shape=singleArrow;direction=north;whiteSpace=wrap;html=1;shadow=0;fontSize=12;fontColor=#000000;fillColor=#3333FF;" parent="WIyWlLk6GJQsqaUBKTNV-1" vertex="1">
          <mxGeometry x="2380" y="840" width="20" height="20" as="geometry" />
        </mxCell>
        <mxCell id="ZvzzSG2WTIvboMNPZyis-175" value="&lt;font style=&quot;font-size: 14px;&quot;&gt;&lt;b&gt;数据资源融合体&lt;/b&gt;&lt;/font&gt;" style="text;html=1;strokeColor=none;fillColor=none;align=center;verticalAlign=middle;whiteSpace=wrap;rounded=0;shadow=0;fontSize=12;fontColor=#000000;" parent="WIyWlLk6GJQsqaUBKTNV-1" vertex="1">
          <mxGeometry x="2090" y="640" width="110" height="40" as="geometry" />
        </mxCell>
        <mxCell id="ZvzzSG2WTIvboMNPZyis-176" value="&lt;b&gt;数据共享服务&lt;/b&gt;" style="rounded=1;whiteSpace=wrap;html=1;shadow=0;fontSize=14;fontColor=#000000;fillColor=#FFE6CC;" parent="WIyWlLk6GJQsqaUBKTNV-1" vertex="1">
          <mxGeometry x="1840" y="580" width="600" height="40" as="geometry" />
        </mxCell>
        <mxCell id="ZvzzSG2WTIvboMNPZyis-177" value="" style="shape=singleArrow;direction=north;whiteSpace=wrap;html=1;shadow=0;fontSize=12;fontColor=#000000;fillColor=#3333FF;" parent="WIyWlLk6GJQsqaUBKTNV-1" vertex="1">
          <mxGeometry x="1865" y="620" width="20" height="20" as="geometry" />
        </mxCell>
        <mxCell id="ZvzzSG2WTIvboMNPZyis-178" value="" style="shape=singleArrow;direction=north;whiteSpace=wrap;html=1;shadow=0;fontSize=12;fontColor=#000000;fillColor=#3333FF;" parent="WIyWlLk6GJQsqaUBKTNV-1" vertex="1">
          <mxGeometry x="2130" y="620" width="20" height="20" as="geometry" />
        </mxCell>
        <mxCell id="ZvzzSG2WTIvboMNPZyis-179" value="" style="shape=singleArrow;direction=north;whiteSpace=wrap;html=1;shadow=0;fontSize=12;fontColor=#000000;fillColor=#3333FF;" parent="WIyWlLk6GJQsqaUBKTNV-1" vertex="1">
          <mxGeometry x="2380" y="620" width="20" height="20" as="geometry" />
        </mxCell>
        <mxCell id="ZvzzSG2WTIvboMNPZyis-180" value="&lt;b&gt;数&lt;br&gt;据&lt;br&gt;标&lt;br&gt;准&lt;br&gt;体&lt;br&gt;系&lt;br&gt;&lt;/b&gt;" style="rounded=1;whiteSpace=wrap;html=1;shadow=0;fontSize=14;fontColor=#000000;fillColor=#FFE6CC;" parent="WIyWlLk6GJQsqaUBKTNV-1" vertex="1">
          <mxGeometry x="2450" y="580" width="30" height="320" as="geometry" />
        </mxCell>
        <mxCell id="ZvzzSG2WTIvboMNPZyis-181" value="&lt;b&gt;数&lt;br&gt;据&lt;br&gt;安&lt;br&gt;全&lt;br&gt;体&lt;br&gt;系&lt;br&gt;&lt;/b&gt;" style="rounded=1;whiteSpace=wrap;html=1;shadow=0;fontSize=14;fontColor=#000000;fillColor=#FFE6CC;" parent="WIyWlLk6GJQsqaUBKTNV-1" vertex="1">
          <mxGeometry x="1800" y="580" width="30" height="320" as="geometry" />
        </mxCell>
        <mxCell id="ZvzzSG2WTIvboMNPZyis-182" value="" style="rounded=1;whiteSpace=wrap;html=1;shadow=0;fontSize=14;fontColor=#000000;fillColor=#FFFFFF;" parent="WIyWlLk6GJQsqaUBKTNV-1" vertex="1">
          <mxGeometry x="1800" y="960" width="110" height="240" as="geometry" />
        </mxCell>
        <mxCell id="ZvzzSG2WTIvboMNPZyis-183" value="&lt;font style=&quot;font-size: 12px;&quot;&gt;结构化数据&lt;/font&gt;" style="rounded=1;whiteSpace=wrap;html=1;shadow=0;fontSize=14;fontColor=#000000;fillColor=#99CCFF;" parent="WIyWlLk6GJQsqaUBKTNV-1" vertex="1">
          <mxGeometry x="1810" y="990" width="90" height="30" as="geometry" />
        </mxCell>
        <mxCell id="ZvzzSG2WTIvboMNPZyis-184" value="&lt;b&gt;多源异构接入&lt;/b&gt;" style="text;html=1;strokeColor=none;fillColor=none;align=center;verticalAlign=middle;whiteSpace=wrap;rounded=0;shadow=0;fontSize=14;fontColor=#000000;" parent="WIyWlLk6GJQsqaUBKTNV-1" vertex="1">
          <mxGeometry x="1805" y="960" width="100" height="30" as="geometry" />
        </mxCell>
        <mxCell id="ZvzzSG2WTIvboMNPZyis-185" value="&lt;font style=&quot;font-size: 12px;&quot;&gt;半结构化数据&lt;/font&gt;" style="rounded=1;whiteSpace=wrap;html=1;shadow=0;fontSize=14;fontColor=#000000;fillColor=#99CCFF;" parent="WIyWlLk6GJQsqaUBKTNV-1" vertex="1">
          <mxGeometry x="1810" y="1030" width="90" height="30" as="geometry" />
        </mxCell>
        <mxCell id="ZvzzSG2WTIvboMNPZyis-186" value="&lt;font style=&quot;font-size: 12px;&quot;&gt;非结构化数据&lt;/font&gt;" style="rounded=1;whiteSpace=wrap;html=1;shadow=0;fontSize=14;fontColor=#000000;fillColor=#99CCFF;" parent="WIyWlLk6GJQsqaUBKTNV-1" vertex="1">
          <mxGeometry x="1810" y="1070" width="90" height="30" as="geometry" />
        </mxCell>
        <mxCell id="81NruTkn_DYiG-jOsqE5-42" style="edgeStyle=orthogonalEdgeStyle;rounded=0;orthogonalLoop=1;jettySize=auto;html=1;exitX=1;exitY=0.5;exitDx=0;exitDy=0;strokeColor=#0000CC;" parent="WIyWlLk6GJQsqaUBKTNV-1" source="81NruTkn_DYiG-jOsqE5-6" target="81NruTkn_DYiG-jOsqE5-12" edge="1">
          <mxGeometry relative="1" as="geometry" />
        </mxCell>
        <mxCell id="81NruTkn_DYiG-jOsqE5-6" value="报表系统接口（RPS）" style="rounded=1;whiteSpace=wrap;html=1;fontSize=12;glass=0;strokeWidth=1;shadow=0;fillColor=#FF3333;" parent="WIyWlLk6GJQsqaUBKTNV-1" vertex="1">
          <mxGeometry x="-460" y="970" width="130" height="30" as="geometry" />
        </mxCell>
        <mxCell id="81NruTkn_DYiG-jOsqE5-7" value="指标模型需求（66个模型）" style="rounded=1;whiteSpace=wrap;html=1;fontSize=12;glass=0;strokeWidth=1;shadow=0;fillColor=#dae8fc;strokeColor=#6c8ebf;" parent="WIyWlLk6GJQsqaUBKTNV-1" vertex="1">
          <mxGeometry x="-280" y="1180" width="320" height="40" as="geometry" />
        </mxCell>
        <mxCell id="81NruTkn_DYiG-jOsqE5-8" value="" style="shape=curlyBracket;whiteSpace=wrap;html=1;rounded=1;flipH=1;labelPosition=right;verticalLabelPosition=middle;align=left;verticalAlign=middle;" parent="WIyWlLk6GJQsqaUBKTNV-1" vertex="1">
          <mxGeometry x="40" y="1010" width="20" height="220" as="geometry" />
        </mxCell>
        <mxCell id="81NruTkn_DYiG-jOsqE5-11" style="edgeStyle=none;rounded=0;orthogonalLoop=1;jettySize=auto;html=1;entryX=1;entryY=0.5;entryDx=0;entryDy=0;fontSize=14;fontColor=#FF2414;" parent="WIyWlLk6GJQsqaUBKTNV-1" source="81NruTkn_DYiG-jOsqE5-16" target="81NruTkn_DYiG-jOsqE5-20" edge="1">
          <mxGeometry relative="1" as="geometry">
            <mxPoint x="-150" y="1125" as="sourcePoint" />
          </mxGeometry>
        </mxCell>
        <mxCell id="81NruTkn_DYiG-jOsqE5-12" value="&lt;b&gt;&lt;font style=&quot;font-size: 14px;&quot;&gt;&amp;nbsp;技术口径分析：&lt;br&gt;&lt;/font&gt;&lt;/b&gt;&amp;nbsp; &amp;nbsp; 因业务资料不全，报表系统文档确实，最后以翻代码逻辑为突破口，开始技术口径分析并转换为业务口径。（&lt;b&gt;&lt;font color=&quot;#ff0000&quot;&gt;时间、工作量、质量都存在重大风险，同时缺失业务调研&lt;/font&gt;&lt;/b&gt;）&lt;br&gt;&amp;nbsp; &amp;nbsp; 前期还基于管会和产品推导的数据来实施，直到2023年2月初，底层数据源换成RPS接口，导致模型和需求变更较大。&lt;br&gt;&amp;nbsp; &amp;nbsp; 一些表调研不足，很多项都是开发分析了发现是手工数据，反反复复。" style="rounded=1;whiteSpace=wrap;html=1;fontSize=12;glass=0;strokeWidth=1;shadow=0;align=left;" parent="WIyWlLk6GJQsqaUBKTNV-1" vertex="1">
          <mxGeometry x="-280" y="1015" width="320" height="140" as="geometry" />
        </mxCell>
        <mxCell id="81NruTkn_DYiG-jOsqE5-13" value="&amp;nbsp; &amp;nbsp; 实际分析过程中，涉及到大量变更，工作优先级调整和逻辑完整性和逻辑质量问题。需要有问题跟踪清单，项目过程记录。但实际上，很多地方不完善，人手不足，工作内容和交付都在摸索，时间紧，导致项目压力大，沟通成本高。&lt;br&gt;&amp;nbsp; &amp;nbsp; 在后续项目中应该尽量避免内部此类问题，项目情况跟进需要按照实际情况适当调配资源。&lt;br&gt;&amp;nbsp; &amp;nbsp; 同时在项目管理中，实际分工不明确，缺乏统一协调性，产出内容千奇百怪，项目计划不明确，架构不清晰，任务分配不合理，导致工作分配不均匀，人员配置不合理，能力与实际工作不匹配，项目风险无人承担。（该管理的管理不到位，管理的人太多导致谁做事谁被骂）&lt;br&gt;&amp;nbsp; &amp;nbsp; 项目赶工的情况，能理解，但是后续很多解决问题，合并版本，文档质量，需求测试，内部都没有计划，一直被项目牵着鼻子走，组员都各自按照各自的来，很多人只管自己的事。很多工作上安排也不合理。" style="shape=partialRectangle;whiteSpace=wrap;html=1;left=0;right=0;fillColor=none;align=left;strokeColor=#FF4D29;" parent="WIyWlLk6GJQsqaUBKTNV-1" vertex="1">
          <mxGeometry x="80" y="1010" width="380" height="220" as="geometry" />
        </mxCell>
        <mxCell id="81NruTkn_DYiG-jOsqE5-14" style="edgeStyle=orthogonalEdgeStyle;rounded=0;orthogonalLoop=1;jettySize=auto;html=1;entryX=1;entryY=0.5;entryDx=0;entryDy=0;fontColor=#FF2414;exitX=0.1;exitY=0.5;exitDx=0;exitDy=0;exitPerimeter=0;" parent="WIyWlLk6GJQsqaUBKTNV-1" source="81NruTkn_DYiG-jOsqE5-16" target="81NruTkn_DYiG-jOsqE5-18" edge="1">
          <mxGeometry relative="1" as="geometry">
            <mxPoint x="-350" y="1210" as="sourcePoint" />
          </mxGeometry>
        </mxCell>
        <mxCell id="81NruTkn_DYiG-jOsqE5-15" value="&lt;font color=&quot;#000000&quot;&gt;基于技术口径和&lt;br&gt;模型需求，提炼指标&lt;/font&gt;" style="edgeLabel;html=1;align=center;verticalAlign=middle;resizable=0;points=[];fontSize=14;fontColor=#FF2414;" parent="81NruTkn_DYiG-jOsqE5-14" vertex="1" connectable="0">
          <mxGeometry x="0.234" y="-1" relative="1" as="geometry">
            <mxPoint x="17" y="-19" as="offset" />
          </mxGeometry>
        </mxCell>
        <mxCell id="81NruTkn_DYiG-jOsqE5-16" value="" style="shape=curlyBracket;whiteSpace=wrap;html=1;rounded=1;labelPosition=left;verticalLabelPosition=middle;align=right;verticalAlign=middle;strokeColor=#FF4D29;fontColor=#FF2414;" parent="WIyWlLk6GJQsqaUBKTNV-1" vertex="1">
          <mxGeometry x="-300" y="1010" width="20" height="220" as="geometry" />
        </mxCell>
        <mxCell id="81NruTkn_DYiG-jOsqE5-17" style="edgeStyle=orthogonalEdgeStyle;rounded=0;orthogonalLoop=1;jettySize=auto;html=1;exitX=0.5;exitY=1;exitDx=0;exitDy=0;entryX=0.5;entryY=0;entryDx=0;entryDy=0;entryPerimeter=0;fontSize=14;fontColor=#000000;" parent="WIyWlLk6GJQsqaUBKTNV-1" source="81NruTkn_DYiG-jOsqE5-18" target="81NruTkn_DYiG-jOsqE5-28" edge="1">
          <mxGeometry relative="1" as="geometry" />
        </mxCell>
        <mxCell id="81NruTkn_DYiG-jOsqE5-18" value="指标定义" style="rounded=1;whiteSpace=wrap;html=1;fontSize=12;glass=0;strokeWidth=1;shadow=0;" parent="WIyWlLk6GJQsqaUBKTNV-1" vertex="1">
          <mxGeometry x="-630" y="1150" width="140" height="40" as="geometry" />
        </mxCell>
        <mxCell id="81NruTkn_DYiG-jOsqE5-19" style="edgeStyle=orthogonalEdgeStyle;rounded=0;orthogonalLoop=1;jettySize=auto;html=1;exitX=0.5;exitY=1;exitDx=0;exitDy=0;fontSize=14;fontColor=#FF2414;" parent="WIyWlLk6GJQsqaUBKTNV-1" source="81NruTkn_DYiG-jOsqE5-20" target="81NruTkn_DYiG-jOsqE5-18" edge="1">
          <mxGeometry relative="1" as="geometry" />
        </mxCell>
        <mxCell id="81NruTkn_DYiG-jOsqE5-20" value="圈定可提炼指标范围" style="rounded=1;whiteSpace=wrap;html=1;fontSize=12;glass=0;strokeWidth=1;shadow=0;" parent="WIyWlLk6GJQsqaUBKTNV-1" vertex="1">
          <mxGeometry x="-630" y="1075" width="140" height="40" as="geometry" />
        </mxCell>
        <mxCell id="81NruTkn_DYiG-jOsqE5-21" style="rounded=0;orthogonalLoop=1;jettySize=auto;html=1;exitX=0.5;exitY=1;exitDx=0;exitDy=0;entryX=0.5;entryY=0;entryDx=0;entryDy=0;fontSize=14;fontColor=#FF2414;" parent="WIyWlLk6GJQsqaUBKTNV-1" source="81NruTkn_DYiG-jOsqE5-22" target="81NruTkn_DYiG-jOsqE5-12" edge="1">
          <mxGeometry relative="1" as="geometry" />
        </mxCell>
        <mxCell id="81NruTkn_DYiG-jOsqE5-22" value="1.客户圈定报表范围（64张监管报送报表）" style="rounded=1;whiteSpace=wrap;html=1;fontSize=12;glass=0;strokeWidth=1;shadow=0;" parent="WIyWlLk6GJQsqaUBKTNV-1" vertex="1">
          <mxGeometry x="-280" y="830" width="320" height="40" as="geometry" />
        </mxCell>
        <mxCell id="81NruTkn_DYiG-jOsqE5-23" value="报表范围目前因客户需求不确定而一直在变，需要有引导客户或者明确项目范围，否则落入无休止的境况。" style="text;html=1;strokeColor=none;fillColor=none;align=left;verticalAlign=middle;whiteSpace=wrap;rounded=0;fontSize=14;fontColor=#FF2414;" parent="WIyWlLk6GJQsqaUBKTNV-1" vertex="1">
          <mxGeometry x="-280" y="760" width="320" height="70" as="geometry" />
        </mxCell>
        <mxCell id="81NruTkn_DYiG-jOsqE5-24" value="指标范围和最终交付量" style="text;html=1;strokeColor=none;fillColor=none;align=center;verticalAlign=middle;whiteSpace=wrap;rounded=0;fontSize=14;fontColor=#FF2414;" parent="WIyWlLk6GJQsqaUBKTNV-1" vertex="1">
          <mxGeometry x="-635" y="1045" width="150" height="30" as="geometry" />
        </mxCell>
        <mxCell id="81NruTkn_DYiG-jOsqE5-25" style="edgeStyle=orthogonalEdgeStyle;rounded=0;orthogonalLoop=1;jettySize=auto;html=1;exitX=1;exitY=0.5;exitDx=0;exitDy=0;exitPerimeter=0;entryX=1;entryY=0.75;entryDx=0;entryDy=0;fontSize=14;fontColor=#000000;" parent="WIyWlLk6GJQsqaUBKTNV-1" source="81NruTkn_DYiG-jOsqE5-28" target="81NruTkn_DYiG-jOsqE5-18" edge="1">
          <mxGeometry relative="1" as="geometry" />
        </mxCell>
        <mxCell id="81NruTkn_DYiG-jOsqE5-26" value="修改指标定义" style="edgeLabel;html=1;align=center;verticalAlign=middle;resizable=0;points=[];fontSize=14;fontColor=#000000;" parent="81NruTkn_DYiG-jOsqE5-25" vertex="1" connectable="0">
          <mxGeometry x="-0.0346" y="2" relative="1" as="geometry">
            <mxPoint as="offset" />
          </mxGeometry>
        </mxCell>
        <mxCell id="81NruTkn_DYiG-jOsqE5-27" value="与业务确认好信息，&lt;br&gt;编写指标需求" style="edgeStyle=orthogonalEdgeStyle;rounded=0;orthogonalLoop=1;jettySize=auto;html=1;exitX=0.5;exitY=1;exitDx=0;exitDy=0;exitPerimeter=0;entryX=0.5;entryY=0;entryDx=0;entryDy=0;fontSize=14;fontColor=#000000;" parent="WIyWlLk6GJQsqaUBKTNV-1" source="81NruTkn_DYiG-jOsqE5-28" target="81NruTkn_DYiG-jOsqE5-32" edge="1">
          <mxGeometry relative="1" as="geometry" />
        </mxCell>
        <mxCell id="81NruTkn_DYiG-jOsqE5-28" value="与业务确认业务含义、口径等信息" style="strokeWidth=2;html=1;shape=mxgraph.flowchart.decision;whiteSpace=wrap;strokeColor=#666666;fontSize=14;fontColor=#000000;" parent="WIyWlLk6GJQsqaUBKTNV-1" vertex="1">
          <mxGeometry x="-630" y="1230" width="140" height="80" as="geometry" />
        </mxCell>
        <mxCell id="81NruTkn_DYiG-jOsqE5-29" style="edgeStyle=orthogonalEdgeStyle;rounded=0;orthogonalLoop=1;jettySize=auto;html=1;exitX=1;exitY=0.5;exitDx=0;exitDy=0;entryX=0;entryY=0.5;entryDx=0;entryDy=0;fontSize=14;fontColor=#000000;" parent="WIyWlLk6GJQsqaUBKTNV-1" source="81NruTkn_DYiG-jOsqE5-32" target="81NruTkn_DYiG-jOsqE5-33" edge="1">
          <mxGeometry relative="1" as="geometry" />
        </mxCell>
        <mxCell id="81NruTkn_DYiG-jOsqE5-30" style="edgeStyle=orthogonalEdgeStyle;rounded=0;orthogonalLoop=1;jettySize=auto;html=1;exitX=1;exitY=0.5;exitDx=0;exitDy=0;entryX=0;entryY=0.5;entryDx=0;entryDy=0;fontSize=14;fontColor=#000000;" parent="WIyWlLk6GJQsqaUBKTNV-1" source="81NruTkn_DYiG-jOsqE5-32" target="81NruTkn_DYiG-jOsqE5-36" edge="1">
          <mxGeometry relative="1" as="geometry" />
        </mxCell>
        <mxCell id="81NruTkn_DYiG-jOsqE5-31" style="edgeStyle=orthogonalEdgeStyle;rounded=0;orthogonalLoop=1;jettySize=auto;html=1;exitX=1;exitY=0.5;exitDx=0;exitDy=0;entryX=0;entryY=0.5;entryDx=0;entryDy=0;fontSize=14;fontColor=#000000;" parent="WIyWlLk6GJQsqaUBKTNV-1" source="81NruTkn_DYiG-jOsqE5-32" target="81NruTkn_DYiG-jOsqE5-38" edge="1">
          <mxGeometry relative="1" as="geometry" />
        </mxCell>
        <mxCell id="81NruTkn_DYiG-jOsqE5-32" value="指标需求" style="rounded=1;whiteSpace=wrap;html=1;fontSize=12;glass=0;strokeWidth=1;shadow=0;" parent="WIyWlLk6GJQsqaUBKTNV-1" vertex="1">
          <mxGeometry x="-630" y="1370" width="140" height="40" as="geometry" />
        </mxCell>
        <mxCell id="81NruTkn_DYiG-jOsqE5-33" value="指标需求与报表格子对应关系" style="rounded=1;whiteSpace=wrap;html=1;fontSize=12;glass=0;strokeWidth=1;shadow=0;fillColor=#dae8fc;strokeColor=#6c8ebf;" parent="WIyWlLk6GJQsqaUBKTNV-1" vertex="1">
          <mxGeometry x="-390" y="1290" width="160" height="40" as="geometry" />
        </mxCell>
        <mxCell id="81NruTkn_DYiG-jOsqE5-34" style="edgeStyle=orthogonalEdgeStyle;rounded=0;orthogonalLoop=1;jettySize=auto;html=1;exitX=1;exitY=0.5;exitDx=0;exitDy=0;entryX=0;entryY=0.5;entryDx=0;entryDy=0;fontSize=14;fontColor=#000000;" parent="WIyWlLk6GJQsqaUBKTNV-1" source="81NruTkn_DYiG-jOsqE5-36" target="81NruTkn_DYiG-jOsqE5-39" edge="1">
          <mxGeometry relative="1" as="geometry" />
        </mxCell>
        <mxCell id="81NruTkn_DYiG-jOsqE5-35" style="edgeStyle=orthogonalEdgeStyle;rounded=0;orthogonalLoop=1;jettySize=auto;html=1;exitX=1;exitY=0.5;exitDx=0;exitDy=0;entryX=0;entryY=0.5;entryDx=0;entryDy=0;fontSize=14;fontColor=#000000;" parent="WIyWlLk6GJQsqaUBKTNV-1" source="81NruTkn_DYiG-jOsqE5-36" target="81NruTkn_DYiG-jOsqE5-40" edge="1">
          <mxGeometry relative="1" as="geometry" />
        </mxCell>
        <mxCell id="81NruTkn_DYiG-jOsqE5-36" value="业务版本《指标定义》文件" style="rounded=1;whiteSpace=wrap;html=1;fontSize=12;glass=0;strokeWidth=1;shadow=0;fillColor=#dae8fc;strokeColor=#6c8ebf;" parent="WIyWlLk6GJQsqaUBKTNV-1" vertex="1">
          <mxGeometry x="-390" y="1370" width="160" height="40" as="geometry" />
        </mxCell>
        <mxCell id="81NruTkn_DYiG-jOsqE5-37" style="edgeStyle=orthogonalEdgeStyle;rounded=0;orthogonalLoop=1;jettySize=auto;html=1;exitX=1;exitY=0.5;exitDx=0;exitDy=0;fontSize=14;fontColor=#000000;" parent="WIyWlLk6GJQsqaUBKTNV-1" source="81NruTkn_DYiG-jOsqE5-38" target="81NruTkn_DYiG-jOsqE5-41" edge="1">
          <mxGeometry relative="1" as="geometry" />
        </mxCell>
        <mxCell id="81NruTkn_DYiG-jOsqE5-38" value="开发版本《指标需求》文件" style="rounded=1;whiteSpace=wrap;html=1;fontSize=12;glass=0;strokeWidth=1;shadow=0;fillColor=#dae8fc;strokeColor=#6c8ebf;" parent="WIyWlLk6GJQsqaUBKTNV-1" vertex="1">
          <mxGeometry x="-390" y="1450" width="160" height="40" as="geometry" />
        </mxCell>
        <mxCell id="81NruTkn_DYiG-jOsqE5-39" value="梳理指标标准" style="rounded=1;whiteSpace=wrap;html=1;fontSize=12;glass=0;strokeWidth=1;shadow=0;fillColor=#dae8fc;strokeColor=#6c8ebf;" parent="WIyWlLk6GJQsqaUBKTNV-1" vertex="1">
          <mxGeometry x="-150" y="1350" width="160" height="40" as="geometry" />
        </mxCell>
        <mxCell id="81NruTkn_DYiG-jOsqE5-40" value="指标管理流程" style="rounded=1;whiteSpace=wrap;html=1;fontSize=12;glass=0;strokeWidth=1;shadow=0;fillColor=#dae8fc;strokeColor=#6c8ebf;" parent="WIyWlLk6GJQsqaUBKTNV-1" vertex="1">
          <mxGeometry x="-150" y="1395" width="160" height="40" as="geometry" />
        </mxCell>
        <mxCell id="81NruTkn_DYiG-jOsqE5-41" value="指标测试方案" style="rounded=1;whiteSpace=wrap;html=1;fontSize=12;glass=0;strokeWidth=1;shadow=0;fillColor=#dae8fc;strokeColor=#6c8ebf;" parent="WIyWlLk6GJQsqaUBKTNV-1" vertex="1">
          <mxGeometry x="-150" y="1450" width="160" height="40" as="geometry" />
        </mxCell>
        <mxCell id="81NruTkn_DYiG-jOsqE5-43" value="&lt;b&gt;&lt;font style=&quot;font-size: 14px;&quot;&gt;&amp;nbsp;风险点：&lt;br&gt;&lt;/font&gt;&lt;/b&gt;&amp;nbsp; &amp;nbsp; 按照客户方的现状，里面涉及到以下情况：&lt;br&gt;&amp;nbsp; &amp;nbsp; 1.CMIS对公贷款原系统改造。&lt;br&gt;&amp;nbsp; &amp;nbsp; 2.票据系统改造。&lt;br&gt;&amp;nbsp; &amp;nbsp; 3.跨年监管报送表样改造。&lt;br&gt;&amp;nbsp; &amp;nbsp; 4.项目业务调研推进难度大，配合度低。&lt;br&gt;&amp;nbsp; &amp;nbsp; 5.项目涉及到多方合作，周期短，协调困难。&lt;br&gt;&amp;nbsp; &amp;nbsp; 6.项目计划和推进不足。" style="rounded=1;whiteSpace=wrap;html=1;fontSize=12;glass=0;strokeWidth=1;shadow=0;align=left;fillColor=#FFFF99;" parent="WIyWlLk6GJQsqaUBKTNV-1" vertex="1">
          <mxGeometry x="-110" y="880" width="290" height="120" as="geometry" />
        </mxCell>
        <mxCell id="81NruTkn_DYiG-jOsqE5-45" value="对接业务方资料" style="rounded=1;whiteSpace=wrap;html=1;" parent="WIyWlLk6GJQsqaUBKTNV-1" vertex="1">
          <mxGeometry x="-265" y="920" width="135" height="40" as="geometry" />
        </mxCell>
        <mxCell id="81NruTkn_DYiG-jOsqE5-48" value="&amp;nbsp;指标变更管理和维护" style="text;html=1;strokeColor=none;fillColor=none;align=left;verticalAlign=middle;whiteSpace=wrap;rounded=0;fontSize=14;fontColor=#FF2414;" parent="WIyWlLk6GJQsqaUBKTNV-1" vertex="1">
          <mxGeometry x="-210" y="1295" width="150" height="30" as="geometry" />
        </mxCell>
        <mxCell id="81NruTkn_DYiG-jOsqE5-49" value="指标定义都各自为政，版本合并每次起码都一个小时起步，很多变更都是在本地完成，也不在大版本上同步。" style="text;html=1;strokeColor=none;fillColor=none;align=left;verticalAlign=middle;whiteSpace=wrap;rounded=0;fontSize=14;fontColor=#FF2414;" parent="WIyWlLk6GJQsqaUBKTNV-1" vertex="1">
          <mxGeometry x="30" y="1355" width="220" height="75" as="geometry" />
        </mxCell>
        <mxCell id="81NruTkn_DYiG-jOsqE5-51" value="模型需求整合整理都不查重，重复指标这个人做完那个人还在做，时间压缩紧，内容多" style="text;html=1;strokeColor=none;fillColor=none;align=left;verticalAlign=middle;whiteSpace=wrap;rounded=0;fontSize=14;fontColor=#FF2414;" parent="WIyWlLk6GJQsqaUBKTNV-1" vertex="1">
          <mxGeometry x="-280" y="1220" width="320" height="30" as="geometry" />
        </mxCell>
        <mxCell id="zuUJrwkRamu8b222Q3UI-0" value="驾驶舱指标（630）逻辑，指标综合度比较高，需要分析是否有拆解" style="rounded=1;whiteSpace=wrap;html=1;" vertex="1" parent="WIyWlLk6GJQsqaUBKTNV-1">
          <mxGeometry x="1266.5" y="958" width="206" height="45" as="geometry" />
        </mxCell>
        <mxCell id="zuUJrwkRamu8b222Q3UI-1" value="" style="rounded=1;whiteSpace=wrap;html=1;" vertex="1" parent="WIyWlLk6GJQsqaUBKTNV-1">
          <mxGeometry x="1001" y="805" width="206" height="80" as="geometry" />
        </mxCell>
        <mxCell id="zuUJrwkRamu8b222Q3UI-2" value="数仓" style="rounded=1;whiteSpace=wrap;html=1;" vertex="1" parent="WIyWlLk6GJQsqaUBKTNV-1">
          <mxGeometry x="1014" y="816.5" width="56" height="57" as="geometry" />
        </mxCell>
        <mxCell id="zuUJrwkRamu8b222Q3UI-3" value="需要穿透数仓，数仓架构需要调研，TD数仓理论上是3层结构" style="rounded=1;whiteSpace=wrap;html=1;" vertex="1" parent="WIyWlLk6GJQsqaUBKTNV-1">
          <mxGeometry x="1076" y="818.5" width="118" height="54.5" as="geometry" />
        </mxCell>
        <mxCell id="zuUJrwkRamu8b222Q3UI-4" value="ODS" style="rounded=1;whiteSpace=wrap;html=1;" vertex="1" parent="WIyWlLk6GJQsqaUBKTNV-1">
          <mxGeometry x="1001" y="734" width="206" height="45" as="geometry" />
        </mxCell>
        <mxCell id="zuUJrwkRamu8b222Q3UI-5" value="" style="rounded=1;whiteSpace=wrap;html=1;" vertex="1" parent="WIyWlLk6GJQsqaUBKTNV-1">
          <mxGeometry x="1001" y="650" width="206" height="42" as="geometry" />
        </mxCell>
        <mxCell id="zuUJrwkRamu8b222Q3UI-6" value="源系统1" style="rounded=1;whiteSpace=wrap;html=1;" vertex="1" parent="WIyWlLk6GJQsqaUBKTNV-1">
          <mxGeometry x="1012" y="656" width="61" height="29" as="geometry" />
        </mxCell>
        <mxCell id="zuUJrwkRamu8b222Q3UI-7" value="源系统2" style="rounded=1;whiteSpace=wrap;html=1;" vertex="1" parent="WIyWlLk6GJQsqaUBKTNV-1">
          <mxGeometry x="1086" y="656" width="58" height="29" as="geometry" />
        </mxCell>
        <mxCell id="zuUJrwkRamu8b222Q3UI-8" value="......." style="rounded=1;whiteSpace=wrap;html=1;" vertex="1" parent="WIyWlLk6GJQsqaUBKTNV-1">
          <mxGeometry x="1159" y="657" width="39" height="28" as="geometry" />
        </mxCell>
        <mxCell id="zuUJrwkRamu8b222Q3UI-10" value="" style="endArrow=classic;html=1;rounded=0;" edge="1" parent="WIyWlLk6GJQsqaUBKTNV-1" source="zuUJrwkRamu8b222Q3UI-0" target="zuUJrwkRamu8b222Q3UI-1">
          <mxGeometry width="50" height="50" relative="1" as="geometry">
            <mxPoint x="1146" y="828" as="sourcePoint" />
            <mxPoint x="1011" y="902" as="targetPoint" />
          </mxGeometry>
        </mxCell>
        <mxCell id="zuUJrwkRamu8b222Q3UI-12" value="" style="endArrow=classic;html=1;rounded=0;" edge="1" parent="WIyWlLk6GJQsqaUBKTNV-1" target="zuUJrwkRamu8b222Q3UI-4">
          <mxGeometry width="50" height="50" relative="1" as="geometry">
            <mxPoint x="1104" y="804" as="sourcePoint" />
            <mxPoint x="1100" y="752" as="targetPoint" />
          </mxGeometry>
        </mxCell>
        <mxCell id="zuUJrwkRamu8b222Q3UI-13" value="" style="endArrow=classic;html=1;rounded=0;exitX=0.476;exitY=0;exitDx=0;exitDy=0;exitPerimeter=0;" edge="1" parent="WIyWlLk6GJQsqaUBKTNV-1" source="zuUJrwkRamu8b222Q3UI-4">
          <mxGeometry width="50" height="50" relative="1" as="geometry">
            <mxPoint x="1150" y="858" as="sourcePoint" />
            <mxPoint x="1099" y="691" as="targetPoint" />
          </mxGeometry>
        </mxCell>
        <mxCell id="zuUJrwkRamu8b222Q3UI-14" value="RPS接口" style="rounded=1;whiteSpace=wrap;html=1;" vertex="1" parent="WIyWlLk6GJQsqaUBKTNV-1">
          <mxGeometry x="821" y="944" width="116" height="32" as="geometry" />
        </mxCell>
        <mxCell id="zuUJrwkRamu8b222Q3UI-15" value="" style="endArrow=classic;html=1;rounded=0;entryX=0.272;entryY=1.013;entryDx=0;entryDy=0;entryPerimeter=0;exitX=0.518;exitY=-0.045;exitDx=0;exitDy=0;exitPerimeter=0;" edge="1" parent="WIyWlLk6GJQsqaUBKTNV-1" source="zuUJrwkRamu8b222Q3UI-14" target="zuUJrwkRamu8b222Q3UI-1">
          <mxGeometry width="50" height="50" relative="1" as="geometry">
            <mxPoint x="810" y="914" as="sourcePoint" />
            <mxPoint x="860" y="864" as="targetPoint" />
          </mxGeometry>
        </mxCell>
        <mxCell id="zuUJrwkRamu8b222Q3UI-16" value="分析型报表系统（多层级）" style="rounded=1;whiteSpace=wrap;html=1;" vertex="1" parent="WIyWlLk6GJQsqaUBKTNV-1">
          <mxGeometry x="822" y="1012" width="117" height="47" as="geometry" />
        </mxCell>
        <mxCell id="zuUJrwkRamu8b222Q3UI-17" value="" style="endArrow=classic;html=1;rounded=0;entryX=0.491;entryY=1;entryDx=0;entryDy=0;entryPerimeter=0;exitX=0.475;exitY=-0.03;exitDx=0;exitDy=0;exitPerimeter=0;" edge="1" parent="WIyWlLk6GJQsqaUBKTNV-1" source="zuUJrwkRamu8b222Q3UI-16" target="zuUJrwkRamu8b222Q3UI-14">
          <mxGeometry width="50" height="50" relative="1" as="geometry">
            <mxPoint x="728" y="882" as="sourcePoint" />
            <mxPoint x="778" y="832" as="targetPoint" />
          </mxGeometry>
        </mxCell>
        <mxCell id="zuUJrwkRamu8b222Q3UI-18" value="" style="rounded=1;whiteSpace=wrap;html=1;dashed=1;fillColor=none;strokeColor=#FF0000;strokeWidth=2;" vertex="1" parent="WIyWlLk6GJQsqaUBKTNV-1">
          <mxGeometry x="784" y="992" width="196" height="131" as="geometry" />
        </mxCell>
        <mxCell id="zuUJrwkRamu8b222Q3UI-19" value="" style="rounded=1;whiteSpace=wrap;html=1;dashed=1;fillColor=none;strokeColor=#3333FF;strokeWidth=2;" vertex="1" parent="WIyWlLk6GJQsqaUBKTNV-1">
          <mxGeometry x="982" y="720" width="513" height="296" as="geometry" />
        </mxCell>
        <mxCell id="zuUJrwkRamu8b222Q3UI-20" value="&lt;font color=&quot;#ff3333&quot;&gt;一期工作范围，约1200个指标&lt;/font&gt;" style="text;html=1;strokeColor=none;fillColor=none;align=center;verticalAlign=middle;whiteSpace=wrap;rounded=0;" vertex="1" parent="WIyWlLk6GJQsqaUBKTNV-1">
          <mxGeometry x="821" y="1082" width="123" height="30" as="geometry" />
        </mxCell>
        <mxCell id="zuUJrwkRamu8b222Q3UI-21" value="&lt;font color=&quot;#ff3333&quot;&gt;&lt;b&gt;二期，约600个指标&lt;/b&gt;&lt;br&gt;&lt;b&gt;风险1：需要穿透数仓和ODS&lt;br&gt;风险2：需要跟一期指标分析对比，涉及到每个指标要跟业务核对口径，相似指标还要讨论合并方案？&lt;br&gt;风险3：后期测试方案和上线标准&lt;br&gt;风险4：二期指标需要对标一期的指标标准，对标工作量大&lt;br&gt;风险5：指标业务口径描述（综合性的指标，基本都是涉及到多源系统，业务口径描述的专业度和开发人员理解能力（是否需要负责解释指标））&lt;/b&gt;&lt;/font&gt;" style="text;html=1;strokeColor=none;fillColor=none;align=left;verticalAlign=middle;whiteSpace=wrap;rounded=0;" vertex="1" parent="WIyWlLk6GJQsqaUBKTNV-1">
          <mxGeometry x="1225" y="726" width="251" height="210" as="geometry" />
        </mxCell>
      </root>
    </mxGraphModel>
  </diagram>
</mxfile>
